<svg width="64" height="64" viewBox="0 0 64 64" fill="none" xmlns="http://www.w3.org/2000/svg">
<path d="M40.9137 29.4803V29.614C40.9137 32.0219 42.8701 33.8612 45.2946 33.8612H56.0797V25.6344L44.7763 25.6177C42.6527 25.6177 40.9137 27.34 40.9137 29.4803ZM45.512 27.9754C46.4484 27.9754 47.2343 28.7278 47.2343 29.6976C47.2343 30.6675 46.4651 31.4199 45.512 31.4199C44.5756 31.4199 43.7897 30.6675 43.7897 29.6976C43.7897 28.7278 44.5422 27.9754 45.512 27.9754Z" fill="#5E4ED1"/>
<path d="M13.0897 40.0477C9.16029 40.0477 6 43.2247 6 47.1375C6 51.0502 9.17701 54.2272 13.0897 54.2272C17.0025 54.2272 20.1795 51.0502 20.1795 47.1375C20.1795 43.2247 17.0192 40.0477 13.0897 40.0477ZM17.9389 47.7896H13.7586V51.9699H12.4376V47.7896H8.25735V46.4854H12.4376V42.3051H13.7586V46.4854H17.9389V47.7896Z" fill="#5E4ED1"/>
<path d="M46.1641 10L11.6517 15.217H46.1641V10Z" fill="#5E4ED1"/>
<path d="M56.1633 16.5547H11.6517V39.0947C12.0865 39.0279 12.5212 38.9944 12.956 38.9944C17.454 38.9944 21.0992 42.6396 21.0992 47.1376C21.0992 47.6727 21.049 48.2077 20.9487 48.6927H56.1466V34.58H44.5756C41.8835 34.58 39.7097 32.4063 39.7097 29.7142C39.7097 27.0221 41.9002 24.8484 44.5756 24.8484H56.1633V16.5547Z" fill="#5E4ED1"/>
</svg>
