<svg width="64" height="64" viewBox="0 0 64 64" fill="none" xmlns="http://www.w3.org/2000/svg">
<path d="M47.5466 38.001C49.9159 38.001 51.8453 39.9266 51.8453 42.298C51.8453 44.6694 49.9163 46.5951 47.5405 46.5951H16.3048C13.9273 46.5951 12 44.6721 12 42.298C12 39.9272 13.9257 38.001 16.2987 38.001C16.5114 38.001 16.6877 37.8246 16.6877 37.609V28.2344C16.6877 19.8184 23.5075 13 31.9227 13C40.3378 13 47.1576 19.8201 47.1576 28.2344V37.609C47.1576 37.8289 47.3298 38.001 47.5466 38.001ZM47.5466 40.3448C46.0356 40.3448 44.8138 39.1236 44.8138 37.609V28.2344C44.8138 21.1145 39.0433 15.3438 31.9227 15.3438C24.8019 15.3438 19.0315 21.113 19.0315 28.2344V37.609C19.0315 39.1188 17.8062 40.3448 16.2987 40.3448C15.2203 40.3448 14.3438 41.2215 14.3438 42.298C14.3438 43.3765 15.2206 44.2512 16.3048 44.2512H47.5405C48.6228 44.2512 49.5015 43.374 49.5015 42.298C49.5015 41.2221 48.6225 40.3448 47.5466 40.3448ZM25.2818 48.9389H27.6256C27.6256 51.3121 29.5495 53.236 31.9227 53.236C34.2959 53.236 36.2197 51.3121 36.2197 48.9389H38.5635C38.5635 52.6066 35.5903 55.5798 31.9227 55.5798C28.255 55.5798 25.2818 52.6066 25.2818 48.9389Z" fill="#5E4ED1"/>
</svg>
