<svg width="64" height="64" viewBox="0 0 64 64" fill="none" xmlns="http://www.w3.org/2000/svg">
<path fill-rule="evenodd" clip-rule="evenodd" d="M7.13278 15C5.90717 15 5 16.0887 5 17.2919V46.5038C5 47.707 5.90717 48.7958 7.13278 48.7958H57.6249C58.8505 48.7958 59.7577 47.707 59.7577 46.5038V17.2919C59.7577 16.0887 58.8505 15 57.6249 15H7.13278ZM7.13278 16.678H57.6249C57.8287 16.678 58.0734 16.8854 58.0734 17.2919V19.8166H6.68466V17.2919C6.68466 16.8854 6.92896 16.678 7.13278 16.678ZM6.68429 27.3863H58.073V46.504C58.073 46.9105 57.8284 47.118 57.6245 47.118H7.13241C6.92859 47.118 6.68392 46.9105 6.68392 46.504L6.68429 27.3863ZM44.0546 35.8309C42.7168 35.8309 41.4338 36.3604 40.4878 37.3028C39.5418 38.2452 39.0104 39.5234 39.0104 40.8561C39.0104 42.1889 39.5418 43.4671 40.4878 44.4095C41.4338 45.3519 42.7168 45.8813 44.0546 45.8813C45.0537 45.88 46.03 45.583 46.8595 45.0281C46.172 44.5688 45.6085 43.948 45.2188 43.2204C44.829 42.4928 44.625 41.6808 44.6247 40.8561C44.6255 40.031 44.8302 39.2188 45.2207 38.4912C45.6112 37.7636 46.1756 37.143 46.8639 36.6841C46.0331 36.1284 45.0552 35.8314 44.0546 35.8309ZM50.3269 35.8309C48.9891 35.8309 47.7061 36.3604 46.7601 37.3028C45.8142 38.2452 45.2827 39.5234 45.2827 40.8561C45.2827 42.1889 45.8142 43.4671 46.7601 44.4095C47.7061 45.3519 48.9891 45.8813 50.3269 45.8813C51.6647 45.8813 52.9477 45.3519 53.8937 44.4095C54.8396 43.4671 55.3711 42.1889 55.3711 40.8561C55.3711 39.5234 54.8396 38.2452 53.8937 37.3028C52.9477 36.3604 51.6647 35.8309 50.3269 35.8309ZM8.60833 42.9763C8.2581 42.9763 7.97671 43.1848 7.97671 43.445V44.7231C7.97671 44.9833 8.2581 45.1929 8.60833 45.1929H22.9609C23.3111 45.1929 23.5936 44.9833 23.5936 44.7231V43.445C23.5936 43.1848 23.3111 42.9763 22.9609 42.9763H8.60833Z" fill="#5E4ED1"/>
</svg>
