<svg width="64" height="64" viewBox="0 0 64 64" fill="none" xmlns="http://www.w3.org/2000/svg">
<path d="M38.1239 17.5055V8.60991H38.9289C39.3734 8.60991 39.7338 8.24949 39.7338 7.80496C39.7338 7.36042 39.3734 7 38.9289 7H38.1239H25.2446H24.4396C23.9951 7 23.6347 7.36042 23.6347 7.80496C23.6347 8.24949 23.9951 8.60991 24.4396 8.60991H25.2446V17.5055C21.1915 17.9127 18 21.3583 18 25.514V50.4676C18 54.8949 21.6223 58.5172 26.0496 58.5172H37.3189C41.7462 58.5172 45.3685 54.8949 45.3685 50.4676V25.514C45.3685 21.3583 42.177 17.9127 38.1239 17.5055ZM26.8545 8.60991H36.514V17.4644H32.4892V16.6595C32.4892 16.2149 32.1288 15.8545 31.6843 15.8545C31.2397 15.8545 30.8793 16.2149 30.8793 16.6595V17.4644H26.8545V8.60991ZM43.7586 36.7834H40.5002C40.6696 37.3045 40.817 37.841 40.9385 38.3933H43.7586V50.4676C43.7586 54.0184 40.8697 56.9073 37.3189 56.9073H26.0496C22.4988 56.9073 19.6099 54.0184 19.6099 50.4676V38.3933H22.8026C23.0628 37.8123 23.3914 37.2798 23.7408 36.7834H19.6099V25.514C19.6099 21.9632 22.4988 19.0743 26.0496 19.0743H37.3189C40.8697 19.0743 43.7586 21.9632 43.7586 25.514V36.7834Z" fill="#5E4ED1"/>
<path d="M27.6894 25.2074C27.5676 25.1421 27.4748 25.1115 27.4138 25.1115C27.2873 25.1115 27.296 25.2429 27.4638 25.473C33.2667 33.4295 29.5855 37.0946 29.5855 37.0946C29.7615 34.111 28.9082 32.6662 28.2876 32.0184C28.1846 31.9115 28.0923 31.8628 28.0172 31.8628C27.8777 31.8628 27.7971 32.0298 27.8191 32.303C28.0514 35.1191 25.0265 36.8509 24.108 39.456C22.2524 44.7244 26.0763 50.8704 31.6745 50.8704C31.7531 50.8704 31.8333 50.8642 31.9127 50.8618C31.9516 50.863 31.9877 50.8696 32.027 50.8696C32.2369 50.8696 32.4539 50.852 32.6763 50.815C32.7223 50.8075 32.7664 50.7957 32.8116 50.7867C33.1889 50.7317 33.5729 50.6492 33.9616 50.5367C37.5752 49.4905 39.5951 46.1252 39.7217 42.8268C40.1301 32.1973 30.3318 26.6243 27.6894 25.2074ZM34.0363 47.5343C33.9262 48.2351 33.4106 49.0027 32.5113 49.2012C32.3128 49.2279 32.1159 49.2432 31.9201 49.2515C31.0755 49.2067 30.6082 48.6651 30.4034 48.3333C30.0166 47.7064 29.9683 46.9337 30.2772 46.3178C30.3079 46.2573 30.3546 46.1901 30.4132 46.1185C30.4596 46.1539 30.5079 46.1873 30.5586 46.2184C30.8168 46.3752 31.1065 46.453 31.3958 46.453C31.7421 46.453 32.0876 46.3414 32.3749 46.1209C32.4342 46.0757 33.1397 45.5156 33.5021 44.3825C33.9714 45.299 34.221 46.3551 34.0363 47.5343ZM38.113 42.7651C38.0438 44.5754 37.2337 46.6086 35.6018 47.9104C35.61 47.8684 35.6199 47.8263 35.6265 47.7838C36.3379 43.2442 32.2499 40.3883 31.1443 39.6557C31.0881 39.6183 31.0452 39.6007 31.0181 39.6007C30.9693 39.6007 30.9701 39.6568 31.0303 39.7587C33.2187 43.4462 31.3958 44.8431 31.3958 44.8431C31.623 43.572 31.3148 42.9124 31.0708 42.6051C31.0271 42.5501 30.9855 42.5249 30.9501 42.5249C30.8923 42.5249 30.8518 42.5917 30.8479 42.7041C30.8114 43.9226 29.3775 44.5224 28.8387 45.5954C28.3808 46.5076 28.3682 47.5319 28.6854 48.4347C27.8961 47.9705 27.1894 47.322 26.6148 46.5104C25.2411 44.5707 24.872 42.1335 25.6263 39.9913C25.9097 39.188 26.5205 38.4109 27.1678 37.5883C27.4429 37.2381 27.7271 36.8764 27.9975 36.4976C27.9948 36.6579 27.9885 36.8254 27.9783 36.9999C27.939 37.6665 28.3151 38.2883 28.9243 38.5626C29.1366 38.6581 29.3618 38.7045 29.5851 38.7045C30.0021 38.7045 30.4132 38.5422 30.7213 38.2356C30.8699 38.0874 33.587 35.2732 31.643 29.769C35.0991 32.6312 38.3381 36.8997 38.113 42.7651Z" fill="#5E4ED1"/>
</svg>
