<svg width="64" height="64" viewBox="0 0 64 64" fill="none" xmlns="http://www.w3.org/2000/svg">
<path d="M7.82251 43.3593H22.4025C22.8859 43.3593 23.3495 43.1673 23.6913 42.8255C24.033 42.4837 24.2251 42.0202 24.2251 41.5368V36.9805C24.2226 35.3927 23.6289 33.8627 22.5596 32.689C21.4902 31.5152 20.0221 30.7818 18.4413 30.6318L17.2567 33.4713L17.8354 38.9652C17.8681 39.2458 17.8243 39.5299 17.7087 39.7876C17.593 40.0452 17.4097 40.2668 17.1783 40.4287L15.9782 41.2634C15.7241 41.44 15.422 41.5346 15.1125 41.5346C14.8031 41.5346 14.501 41.44 14.2468 41.2634L13.0467 40.4278C12.8142 40.2647 12.6303 40.0414 12.5147 39.7819C12.3992 39.5223 12.3563 39.2363 12.3906 38.9543L12.9683 33.4713L11.7837 30.6318C10.203 30.7818 8.73481 31.5152 7.6655 32.689C6.59618 33.8627 6.00242 35.3927 6 36.9805V41.5368C6 42.0202 6.19201 42.4837 6.5338 42.8255C6.87559 43.1673 7.33915 43.3593 7.82251 43.3593Z" fill="#5E4ED1"/>
<path d="M31.515 7.82019C35.1571 7.82188 38.6819 9.10772 41.4696 11.4515C41.5612 11.5286 41.6368 11.623 41.692 11.7293C41.7471 11.8356 41.7808 11.9518 41.791 12.0711C41.8013 12.1904 41.7879 12.3106 41.7517 12.4248C41.7154 12.5389 41.657 12.6448 41.5798 12.7364L41.178 13.2121L44.8075 13.049L44.3354 9.44769L43.9199 9.93885C43.7642 10.1228 43.542 10.2376 43.3019 10.2581C43.0618 10.2786 42.8233 10.2031 42.6387 10.0482C40.5371 8.28555 38.0468 7.04744 35.3729 6.43586C32.6991 5.82428 29.9181 5.85673 27.2593 6.53055C24.6004 7.20436 22.1397 8.50026 20.0798 10.3115C18.0199 12.1227 16.4198 14.3974 15.4114 16.9482C16.033 16.9793 16.6446 17.1174 17.2193 17.3565C18.3949 14.5334 20.3797 12.1214 22.9236 10.4244C25.4676 8.72733 28.457 7.82123 31.515 7.82019Z" fill="#5E4ED1"/>
<path d="M51.5626 22.4003C51.5626 21.4335 51.1786 20.5064 50.495 19.8228C49.8114 19.1393 48.8843 18.7552 47.9176 18.7552C46.9509 18.7552 46.0238 19.1393 45.3402 19.8228C44.6566 20.5064 44.2726 21.4335 44.2726 22.4003V25.134C44.2726 26.1007 44.6566 27.0279 45.3402 27.7114C46.0238 28.395 46.9509 28.779 47.9176 28.779C48.8843 28.779 49.8114 28.395 50.495 27.7114C51.1786 27.0279 51.5626 26.1007 51.5626 25.134V22.4003Z" fill="#5E4ED1"/>
<path d="M15.1125 28.779C16.0793 28.779 17.0064 28.395 17.69 27.7114C18.3735 27.0279 18.7576 26.1007 18.7576 25.134V22.4003C18.7576 21.4335 18.3735 20.5064 17.69 19.8228C17.0064 19.1393 16.0793 18.7552 15.1125 18.7552C14.1458 18.7552 13.2187 19.1393 12.5351 19.8228C11.8516 20.5064 11.4675 21.4335 11.4675 22.4003V25.134C11.4675 26.1007 11.8516 27.0279 12.5351 27.7114C13.2187 28.395 14.1458 28.779 15.1125 28.779Z" fill="#5E4ED1"/>
<path d="M51.2464 30.6318L50.0618 33.4713L50.6404 38.9652C50.6732 39.2458 50.6294 39.5299 50.5137 39.7876C50.3981 40.0452 50.2148 40.2668 49.9834 40.4287L48.7833 41.2634C48.5291 41.44 48.227 41.5346 47.9176 41.5346C47.6081 41.5346 47.306 41.44 47.0519 41.2634L45.8518 40.4278C45.6192 40.2647 45.4353 40.0414 45.3198 39.7819C45.2042 39.5223 45.1613 39.2363 45.1957 38.9543L45.7734 33.4713L44.5888 30.6318C43.0081 30.7818 41.5399 31.5152 40.4706 32.689C39.4012 33.8627 38.8075 35.3927 38.8051 36.9805V41.5368C38.8051 42.0202 38.9971 42.4837 39.3389 42.8255C39.6806 43.1673 40.1442 43.3593 40.6276 43.3593H55.2076C55.691 43.3593 56.1545 43.1673 56.4963 42.8255C56.8381 42.4837 57.0301 42.0202 57.0301 41.5368V36.9805C57.0277 35.3927 56.4339 33.8627 55.3646 32.689C54.2953 31.5152 52.8271 30.7818 51.2464 30.6318Z" fill="#5E4ED1"/>
<path d="M46.004 45.1815C45.1324 47.4977 43.718 49.571 41.8794 51.2275C40.0408 52.884 37.8318 54.0753 35.4376 54.7015C33.0434 55.3277 30.5339 55.3705 28.1198 54.8263C25.7056 54.2821 23.4572 53.1668 21.5633 51.574C21.4716 51.4969 21.396 51.4025 21.3408 51.2962C21.2857 51.1899 21.252 51.0737 21.2418 50.9544C21.2315 50.835 21.2449 50.7149 21.2812 50.6007C21.3174 50.4866 21.3758 50.3807 21.453 50.2891L21.8549 49.8134L18.2253 49.9765L18.6974 53.5778L19.1129 53.0866C19.2686 52.9027 19.4908 52.7879 19.7309 52.7674C19.971 52.7469 20.2095 52.8224 20.3941 52.9773C22.5566 54.792 25.1303 56.05 27.8906 56.6418C30.6509 57.2335 33.514 57.1409 36.2304 56.3722C38.9467 55.6034 41.4337 54.1817 43.4745 52.2311C45.5153 50.2806 47.0478 47.8603 47.9386 45.1815H46.004Z" fill="#5E4ED1"/>
<path d="M47.523 34.2469L47.02 39.021L47.9176 39.6461L48.8152 39.021L48.3122 34.2469H47.523Z" fill="#5E4ED1"/>
<path d="M46.5508 30.6017L47.3108 32.4242H48.5246L49.2845 30.6017H46.5508Z" fill="#5E4ED1"/>
<path d="M13.7457 30.6017L14.5057 32.4242H15.7195L16.4795 30.6017H13.7457Z" fill="#5E4ED1"/>
<path d="M14.718 34.2469L14.215 39.021L15.1125 39.6461L16.0101 39.021L15.5071 34.2469H14.718Z" fill="#5E4ED1"/>
<path d="M32.1613 22.6398L28.0152 17.357L28.0392 16.3101C29.985 16.4467 31.4978 16.2369 31.8498 14.3626L27.7036 14.3383L28.3747 13.1939L31.682 13.2424C31.1781 12.1759 29.7922 12.0445 27.6317 12.1228L28.3747 11.0026L35.3969 10.9919L34.7019 12.0981H32.7607C33.1155 12.4795 33.3751 12.9184 33.3838 13.291L35.3969 13.2667L34.7019 14.3622L33.3598 14.3866C33.1503 16.0207 31.6759 16.9883 29.8128 17.2106L33.9867 22.6383L32.1615 22.6393L32.1613 22.6398Z" fill="#5E4ED1" stroke="black" stroke-width="0.099084"/>
</svg>
