<svg width="64" height="64" viewBox="0 0 64 64" fill="none" xmlns="http://www.w3.org/2000/svg">
<path d="M48.8779 28.0468C47.2515 24.2632 44.2769 20.0415 40.4765 16.1316L41.749 14.7664C42.2798 15.1119 42.9034 15.2973 43.5438 15.2973C45.364 15.2973 46.8386 13.8227 46.8386 12.0025C46.8386 10.1824 45.364 8.69928 43.5438 8.69928C41.7237 8.69928 40.2406 10.1824 40.2406 12.0025C40.2406 12.5502 40.3754 13.0811 40.6366 13.5614L39.3137 14.9771C33.0527 8.90152 26.0586 5 21.4071 5C19.8397 5 18.601 5.43818 17.7331 6.30613C17.2191 6.82015 16.8483 7.48585 16.6124 8.30323L16.6039 8.33694C12.1041 17.4377 13.5114 27.3979 20.2442 34.4173C19.8735 35.024 19.6796 35.715 19.6796 36.4397C19.6796 37.6279 20.2189 38.757 21.1374 39.4986V47.7145H18.778C18.4157 47.7145 18.0954 47.9505 17.9943 48.296L16.1995 54.2957C15.2557 54.3126 14.4973 55.0794 14.4973 56.0232V57.1945C14.4973 58.1467 15.2725 58.9303 16.2247 58.9303H30.8196C31.7718 58.9303 32.5471 58.1551 32.5471 57.1945V56.0232C32.5471 55.071 31.7718 54.2957 30.8196 54.2957H30.8028L29.05 48.3044C28.9489 47.9589 28.6287 47.7145 28.2664 47.7145H26.1681V39.4901C26.3198 39.3722 26.4631 39.2289 26.5979 39.0772C29.7326 40.653 33.1622 41.4873 36.5329 41.4873C40.4091 41.4873 44.1084 40.4086 47.5212 38.2851L47.6307 38.2177C48.1279 37.9818 48.524 37.7121 48.8442 37.3919C50.6727 35.5802 50.6812 32.2517 48.8779 28.0468ZM22.7722 47.7229V40.3075C23.0587 40.3749 23.3536 40.4086 23.6486 40.4086C23.9435 40.4086 24.2469 40.3749 24.5334 40.3075V47.7229H22.7722ZM17.9101 54.3041L19.3847 49.3577H27.6512L29.1006 54.3041H17.9101ZM16.6713 12.4576C17.691 17.0416 21.4408 22.9571 26.817 28.3333C32.4797 33.996 38.6143 37.7964 43.2742 38.6138C41.1085 39.448 38.8502 39.8693 36.5329 39.8693C31.5106 39.8693 26.4209 37.8722 22.511 34.3331C22.3003 34.1392 22.0981 33.9454 21.8874 33.7516C19.6628 31.5523 12.9636 23.7408 16.6713 12.4576ZM21.4492 6.60106C25.5951 6.60106 32.2943 10.4352 38.2013 16.1653L36.8784 17.5894L23.8592 22.5358C21.879 20.0078 20.3032 17.4461 19.2836 15.1119C17.7331 11.5559 17.5898 8.7667 18.896 7.46057C19.469 6.89599 20.3285 6.60106 21.4492 6.60106ZM33.8364 20.4965L27.4153 26.5974C26.5642 25.7126 25.73 24.8025 24.9463 23.8672L33.8364 20.4965ZM28.5782 27.7603L35.429 21.2465C34.4431 23.7745 32.9768 27.4485 31.7129 30.5495C30.6427 29.6731 29.5893 28.7378 28.5782 27.7603ZM33.0443 31.6028C37.0301 21.8364 37.8643 19.4854 38.075 18.7017L39.3558 17.3281C42.9877 21.078 45.8274 25.1059 47.3695 28.6872C48.8694 32.1927 48.9874 34.9482 47.6813 36.2543C47.0999 36.8358 46.2319 37.1307 45.1027 37.1307C42.0944 37.1307 37.6031 35.0662 33.0443 31.6028Z" fill="#5E4ED1"/>
</svg>
