<svg width="64" height="64" viewBox="0 0 64 64" fill="none" xmlns="http://www.w3.org/2000/svg">
<path d="M38.8852 48.8923H25.7323V50.7097H38.8852V48.8923Z" fill="#5E4ED1"/>
<path d="M37.2014 51.7161H27.4265V53.5334H37.2014V51.7161Z" fill="#5E4ED1"/>
<path d="M36.0719 54.4675H28.6176V56.2849H36.0719V54.4675Z" fill="#5E4ED1"/>
<path d="M45.1177 29.7842C45.1047 32.4369 44.1926 35.0069 42.5303 37.0743C40.9384 40.231 39.8044 43.5984 39.1625 47.075L38.9571 48.1018H25.7015L25.4962 47.075C24.8515 43.5898 23.7105 40.215 22.1078 37.0537C20.4573 34.9416 19.5545 32.3415 19.5409 29.661C19.5419 28.0611 19.8923 26.4806 20.5677 25.0302C21.2278 23.6115 22.1672 22.3404 23.3297 21.2928C24.5291 20.2096 25.9226 19.363 27.4368 18.7977C28.9965 18.1975 30.6529 17.8878 32.3242 17.8839C34.0179 17.882 35.6968 18.1989 37.2732 18.8183C38.7893 19.3983 40.1827 20.2587 41.3803 21.3544C42.541 22.4196 43.4797 23.7037 44.1423 25.1329C44.8004 26.5944 45.1332 28.1814 45.1177 29.7842Z" fill="#5E4ED1"/>
<path d="M18.2779 21.8984L12.4356 18.5306C12.364 18.4887 12.2823 18.4674 12.1995 18.4689C11.9954 18.4985 11.8017 18.5776 11.6352 18.6993C11.4688 18.821 11.3346 18.9817 11.2446 19.1672C11.0905 19.4243 11.0122 19.7197 11.0187 20.0194C11.0182 20.1176 11.0413 20.2146 11.086 20.3021C11.1306 20.3896 11.1956 20.4652 11.2754 20.5225L17.128 23.9006C17.1968 23.939 17.2752 23.9568 17.3539 23.9519C17.5595 23.923 17.7549 23.8443 17.9231 23.7226C18.0914 23.6009 18.2273 23.44 18.319 23.2537C18.627 22.7095 18.6065 22.0934 18.2779 21.8984Z" fill="#5E4ED1"/>
<path d="M23.4631 17.5553C23.735 17.5474 24.0002 17.4696 24.2332 17.3294C24.7774 17.0213 25.0752 16.4772 24.8801 16.1486L21.502 10.296C21.4327 10.2137 21.3435 10.1506 21.2427 10.1129C21.142 10.0751 21.0333 10.0639 20.927 10.0804C20.6552 10.0882 20.3899 10.166 20.1569 10.3063C19.8944 10.4451 19.6797 10.6598 19.5409 10.9223C19.4913 11.0082 19.4652 11.1056 19.4652 11.2047C19.4652 11.3038 19.4913 11.4012 19.5409 11.487L22.8881 17.2678C22.9491 17.3632 23.0347 17.4403 23.1359 17.4909C23.2372 17.5415 23.3503 17.5638 23.4631 17.5553Z" fill="#5E4ED1"/>
<path d="M32.3242 15.2142C32.9505 15.2142 33.4844 14.8959 33.4844 14.5057V7.70847C33.505 7.3183 32.9711 7 32.3242 7C31.6773 7 31.1639 7.3183 31.1639 7.70847V14.4544C31.1845 14.8445 31.7184 15.2142 32.3242 15.2142Z" fill="#5E4ED1"/>
<path d="M44.4915 10.2654C44.2546 10.1394 43.9896 10.0758 43.7214 10.0805C43.6116 10.0698 43.5008 10.0878 43.4 10.1328C43.2992 10.1778 43.2118 10.2483 43.1464 10.3372L39.7684 16.1898C39.5733 16.5184 39.871 17.0626 40.4152 17.3706C40.6482 17.5109 40.9135 17.5887 41.1853 17.5965C41.2953 17.6083 41.4064 17.5907 41.5074 17.5457C41.6084 17.5006 41.6956 17.4295 41.7603 17.3398L45.1384 11.4872C45.1879 11.4014 45.214 11.304 45.214 11.2048C45.214 11.1057 45.1879 11.0083 45.1384 10.9225C44.9983 10.6401 44.7717 10.4098 44.4915 10.2654Z" fill="#5E4ED1"/>
<path d="M53.6297 20.0194C53.6361 19.7197 53.5578 19.4243 53.4038 19.1672C53.3137 18.9817 53.1796 18.821 53.0131 18.6993C52.8467 18.5776 52.6529 18.4985 52.4489 18.4689C52.366 18.4674 52.2843 18.4887 52.2127 18.5306L46.3704 21.8984C46.0418 22.0934 46.0213 22.7095 46.3704 23.2537C46.4621 23.44 46.5981 23.6009 46.7663 23.7226C46.9345 23.8443 47.1299 23.923 47.3356 23.9519C47.4142 23.9568 47.4926 23.939 47.5614 23.9006L53.414 20.5225C53.4863 20.4609 53.5434 20.3835 53.5808 20.2962C53.6182 20.2089 53.6349 20.1142 53.6297 20.0194Z" fill="#5E4ED1"/>
<path d="M15.4441 30.1642H8.70847C8.32857 30.1642 8 30.6981 8 31.3244C8 31.9508 8.32857 32.4847 8.70847 32.4847H15.4441C15.824 32.4847 16.1423 31.9508 16.1423 31.3244C16.1423 30.6981 15.824 30.1642 15.4441 30.1642Z" fill="#5E4ED1"/>
<path d="M55.9399 30.1642H49.2043C48.8244 30.1642 48.5061 30.6981 48.5061 31.3244C48.5061 31.9508 48.8244 32.4847 49.2043 32.4847H55.9399C56.3198 32.4847 56.6484 31.9508 56.6484 31.3244C56.6484 30.6981 56.3404 30.1642 55.9399 30.1642Z" fill="#5E4ED1"/>
</svg>
