<svg width="64" height="64" viewBox="0 0 64 64" fill="none" xmlns="http://www.w3.org/2000/svg">
<path fill-rule="evenodd" clip-rule="evenodd" d="M10.1433 52.0833H21.1785C22.2273 52.0833 23.0741 52.9301 23.0741 53.9829V55.5765H8.245V53.9829C8.245 52.9301 9.09249 52.0833 10.1433 52.0833Z" fill="#5E4ED1"/>
<path fill-rule="evenodd" clip-rule="evenodd" d="M36.8025 48.2221H46.2301C47.0605 48.2221 48.1258 49.1374 48.1258 50.2704H34.9081C34.9081 49.1374 35.9773 48.2221 36.8025 48.2221ZM54.3596 43.3622C55.1413 43.3543 55.4703 43.6011 55.596 43.9893C55.8197 44.6756 56.0763 46.0323 54.8557 46.4771C53.8556 46.8449 51.7481 47.1068 50.6275 47.2766C49.5477 47.4358 49.2766 46.8035 49.6537 45.8501C50.3505 44.084 51.9336 43.7142 53.4167 43.457C53.7865 43.3964 54.0991 43.3662 54.3596 43.3622ZM28.6802 43.3622C28.9408 43.3662 29.2494 43.3971 29.6198 43.4576C31.1043 43.7149 32.6834 44.0847 33.3829 45.8507C33.7566 46.8002 33.4895 47.4365 32.4097 47.2773C31.2852 47.1049 29.1842 46.8456 28.1841 46.4778C26.9635 46.033 27.2175 44.6762 27.4399 43.9899C27.5676 43.6011 27.8965 43.3543 28.6802 43.3622ZM41.5189 29.295C45.2984 29.295 47.5705 29.4042 48.8457 29.7425C49.3905 29.8905 49.7774 30.4491 49.9215 30.8531L52.5738 38.1259C50.3018 38.297 45.7097 38.7017 41.5189 38.7017C37.3269 38.7017 32.7348 38.297 30.4627 38.1259L33.1111 30.8531C33.2552 30.4498 33.6461 29.8905 34.1909 29.7425C35.4661 29.4042 37.7381 29.295 41.5189 29.295ZM41.5189 27.0664C37.7072 27.0664 35.3608 27.1243 33.6125 27.5935C32.1215 27.9915 31.3635 29.2009 31.0141 30.1057L28.2565 37.2936L26.1141 37.2896C25.2501 37.2896 24.8119 37.7009 24.8119 38.3963C24.8119 39.332 25.2501 40.1979 26.4391 40.8164L26.1239 41.3803C25.7061 42.1798 25.3975 43.0253 25.3975 43.7794V49.9803C25.3975 51.0146 26.1134 51.8924 26.9497 52.2174V54.5553C26.9497 55.1231 27.4044 55.5758 27.9702 55.5758H30.8694C31.4346 55.5758 31.8912 55.1231 31.8912 54.5553V52.3615H51.144V54.5553C51.144 55.1231 51.6 55.5758 52.1659 55.5758H55.065C55.6302 55.5758 56.0868 55.1231 56.0868 54.5553V52.2174C56.9225 51.8924 57.639 51.0146 57.639 49.9803V43.7794C57.639 43.0253 57.3305 42.1791 56.912 41.3803L56.5968 40.8164C57.7858 40.1986 58.2253 39.332 58.2253 38.3963C58.2253 37.7009 57.7858 37.2896 56.9225 37.2896L54.7774 37.2936L52.0224 30.1057C51.673 29.2009 50.9157 27.9915 49.4254 27.5935C47.6771 27.1243 45.3294 27.0664 41.5189 27.0664Z" fill="#5E4ED1"/>
<path fill-rule="evenodd" clip-rule="evenodd" d="M15.6619 33.7043C17.0832 33.7043 18.2347 34.8571 18.2347 36.2783C18.2347 37.7009 17.0832 38.8511 15.6619 38.8511C14.2394 38.8511 13.0879 37.7009 13.0879 36.2783C13.0879 34.8571 14.2394 33.7043 15.6619 33.7043ZM46.8882 9L18.3169 31.6388C17.5352 31.1888 16.6305 30.9295 15.6619 30.9295C12.697 30.9295 10.3118 33.3174 10.3118 36.2823V37.9812L6 41.3981L8.24112 44.6059L10.3112 42.9688V50.6758H21.0101V36.2823C21.0101 35.723 20.9252 35.1861 20.7673 34.6807L49.1326 12.2064L46.8882 9Z" fill="#5E4ED1"/>
</svg>
