<svg width="64" height="64" viewBox="0 0 64 64" fill="none" xmlns="http://www.w3.org/2000/svg">
<path d="M41.0997 28.8271C41.3024 29.5366 41.5558 30.3474 41.8598 31.2088C42.772 30.2967 43.1774 29.8913 43.3801 29.6886C43.4814 29.5873 43.5321 29.5366 43.5828 29.4859C43.9375 29.1312 44.3429 28.9285 44.7483 28.9285C45.2044 28.9285 45.6097 29.1819 46.0658 29.6379C46.9273 30.4994 46.978 31.3609 46.2178 32.121C46.1672 32.1716 46.1165 32.2223 46.0151 32.3237C45.7618 32.577 45.3564 33.0331 44.2415 34.1479C43.8361 34.5533 43.4814 34.8574 43.1267 35.0601C44.951 40.5329 46.9273 46.9179 47.9408 49.9583C48.2448 50.9212 48.4475 51.5799 48.4982 51.6813C49.0049 53.1508 47.8394 54.7724 47.282 55.3805C46.978 55.7352 46.5726 55.8872 46.1672 55.8872C46.1165 55.8872 46.0151 55.8872 45.9645 55.8872C45.4577 55.8366 45.0017 55.4818 44.799 55.0258C44.1402 53.6069 38.1606 41.4451 37.4512 40.0768C36.9444 39.0634 34.9681 36.479 34.1574 35.4655C33.8026 35.8202 33.4479 36.1242 33.3466 36.2763C30.6101 39.0634 26.5055 42.8133 23.6171 45.2456C23.4144 45.3976 23.161 45.6003 22.8063 45.803C23.009 46.5632 23.5664 48.7421 24.4786 52.1373C24.5799 52.4414 24.4279 52.7961 24.1745 52.9988L23.161 53.8096C23.009 53.9109 22.8063 54.0123 22.6543 54.0123C22.6036 54.0123 22.5023 54.0123 22.4516 54.0123C22.2996 53.9616 22.0969 53.8603 21.9955 53.7082C21.9448 53.6576 21.9448 53.6069 21.8942 53.5562V53.5055C21.5394 52.8974 18.8537 48.7422 18.803 48.6915V48.6408C18.7524 48.5395 18.651 48.3874 18.6003 48.2861C18.499 48.3368 18.3976 48.3874 18.2963 48.4381L18.2456 48.4888C17.9922 48.6408 17.7389 48.7421 17.4855 48.8942C16.0666 49.6036 15.2052 50.0597 14.6984 50.0597C14.5464 50.0597 14.3944 50.009 14.293 49.9077L14.0396 49.6543C13.6343 49.2489 14.0903 48.2861 15.0531 46.4111C15.1545 46.1578 15.3065 45.9044 15.4585 45.651C15.5092 45.499 15.6106 45.3976 15.6612 45.2963C15.5599 45.2456 15.4585 45.195 15.3065 45.0936C15.3065 45.0936 11.1005 42.3572 10.4924 42.0025H10.4418C10.3911 42.0025 10.3404 41.9518 10.2897 41.9011C10.2391 41.9011 10.2391 41.8504 10.2391 41.8504C10.1377 41.7491 10.0364 41.5971 9.9857 41.445C9.93503 41.1917 9.9857 40.9383 10.1377 40.7356L10.9485 39.7221C11.1005 39.5194 11.3539 39.4181 11.6073 39.4181C11.658 39.4181 11.7593 39.4181 11.81 39.4687C15.2558 40.3302 17.3842 40.8876 18.1443 41.141C18.347 40.7863 18.5497 40.5329 18.7017 40.3302C21.1341 37.4418 24.884 33.3372 27.671 30.6007C27.7724 30.4994 28.0258 30.246 28.4818 29.79C27.063 28.7258 24.7826 27.0029 23.8705 26.4961C22.1982 25.6853 8.92154 19.1483 8.87087 19.1483C8.4148 18.9457 8.06008 18.4896 8.0094 17.9828C7.95873 17.4761 8.11075 16.9694 8.51615 16.6146C9.02289 16.1586 10.1884 15.2971 11.4553 15.2971C11.7086 15.2971 11.962 15.3478 12.2154 15.3984C12.3167 15.4491 12.9248 15.6011 13.837 15.9052C16.7761 16.8173 23.6678 18.9963 28.8872 20.7193C29.0899 20.3645 29.394 20.0098 29.7994 19.6551C30.9142 18.5403 31.3703 18.0842 31.6236 17.8815C31.725 17.7801 31.7757 17.7295 31.8263 17.6788C32.1811 17.3241 32.5865 17.1214 32.9412 17.1214C33.3972 17.1214 33.8026 17.3241 34.2587 17.8308C35.1202 18.6923 35.1708 19.5537 34.4107 20.3139C34.3601 20.3645 34.3094 20.4152 34.208 20.5166C34.0053 20.7193 33.5999 21.1246 32.7385 22.0368L35.0695 22.7969C37.9579 19.7564 44.1402 13.4222 46.1672 11.6485C48.5489 9.5709 51.4373 8 53.5149 8C54.2751 8 54.8832 8.20269 55.3392 8.65876C57.0621 10.3817 55.1872 14.5877 52.3494 17.8308C50.4745 19.7058 44.1402 25.9387 41.0997 28.8271Z" fill="#5E4ED1"/>
</svg>
