<svg width="64" height="64" viewBox="0 0 64 64" fill="none" xmlns="http://www.w3.org/2000/svg">
<path fill-rule="evenodd" clip-rule="evenodd" d="M17.0992 28.3713C11.2176 20.063 21.2381 16.7396 21.0203 12.4932C25.8127 20.6169 16.4457 21.54 17.0992 28.3713Z" fill="#5E4ED1"/>
<path fill-rule="evenodd" clip-rule="evenodd" d="M14.703 31.3252C15.3565 35.0178 17.0992 38.3411 21.8916 40.3721C16.2279 32.0637 18.8419 23.5708 26.0306 20.0628C25.377 21.1706 24.5057 23.5708 26.4662 24.6785C32.3478 19.3243 33.8727 10.8313 32.5657 4C39.9722 10.0928 44.1111 18.5858 39.3187 26.1556C36.0511 31.5098 41.2792 36.6795 44.1111 26.1556C57.1813 36.6795 56.7457 55.1424 36.7046 59.2043C38.4473 57.358 49.1213 48.865 38.4473 39.2643C39.7543 46.8341 32.5657 46.8341 33.6549 54.2193C27.9911 46.0956 40.19 45.7263 29.7338 33.91C32.3478 43.6954 15.3565 47.5726 27.3376 59.0197C9.47489 55.881 7.95003 41.8491 14.703 31.3252Z" fill="#5E4ED1"/>
</svg>
