<svg width="64" height="64" viewBox="0 0 64 64" fill="none" xmlns="http://www.w3.org/2000/svg">
<path d="M16.2389 23.2412H47.6065C49.9463 23.2412 51.8453 21.3952 51.8453 19.1206C51.8453 16.846 49.9463 15 47.6065 15H16.2389C13.899 15 12 16.846 12 19.1206C12 21.3952 13.8905 23.2412 16.2389 23.2412Z" fill="#5E4ED1"/>
<path d="M16.2389 36.4271H47.6065C49.9463 36.4271 51.8453 34.5811 51.8453 32.3065C51.8453 30.0319 49.9463 28.1859 47.6065 28.1859H16.2389C13.899 28.1859 12 30.0319 12 32.3065C12 34.5811 13.8905 36.4271 16.2389 36.4271Z" fill="#5E4ED1"/>
<path d="M16.2389 49.6132H47.6065C49.9463 49.6132 51.8453 47.7671 51.8453 45.4926C51.8453 43.218 49.9463 41.3719 47.6065 41.3719H16.2389C13.899 41.3719 12 43.218 12 45.4926C12 47.7671 13.8905 49.6132 16.2389 49.6132Z" fill="#5E4ED1"/>
</svg>
