<svg width="64" height="64" viewBox="0 0 64 64" fill="none" xmlns="http://www.w3.org/2000/svg">
<path d="M9.88502 12.4826C6.7174 32.436 12.5525 48.0663 32.0584 56.2139C51.5643 48.0663 57.2327 32.436 54.0651 12.4826C45.5625 16.9721 38.2269 15.6419 32.0584 8.49186C25.7232 15.6419 18.3876 16.9721 9.88502 12.4826ZM8.21785 8.9907C18.3876 14.9767 24.7229 14.3116 32.0584 5C39.2272 14.3116 45.5625 14.9767 55.7322 8.9907C59.7335 31.7709 54.8987 49.0639 32.0584 58.3756C9.55159 49.2302 4.21664 31.4384 8.21785 8.9907Z" fill="#5E4ED1"/>
<path fill-rule="evenodd" clip-rule="evenodd" d="M28.5574 19.1338H35.5595V28.1129H44.5622V35.0966H35.5595V44.2419H28.5574V35.0966H19.3879V28.1129H28.5574V19.1338Z" fill="#5E4ED1"/>
</svg>
