<svg width="64" height="64" viewBox="0 0 64 64" fill="none" xmlns="http://www.w3.org/2000/svg">
<path fill-rule="evenodd" clip-rule="evenodd" d="M58.3888 54.5335H5.61121C5.45111 54.5334 5.2971 54.5948 5.18102 54.7051C5.1243 54.7573 5.07903 54.8208 5.04806 54.8914C5.01709 54.962 5.0011 55.0383 5.0011 55.1154C5.0011 55.1926 5.01709 55.2689 5.04806 55.3395C5.07903 55.4101 5.1243 55.4736 5.18102 55.5258C5.29696 55.6363 5.45106 55.6978 5.61121 55.6974H58.3888C58.5489 55.6978 58.703 55.6363 58.819 55.5258C58.8757 55.4736 58.921 55.4101 58.9519 55.3395C58.9829 55.2689 58.9989 55.1926 58.9989 55.1154C58.9989 55.0383 58.9829 54.962 58.9519 54.8914C58.921 54.8208 58.8757 54.7573 58.819 54.7051C58.7029 54.5948 58.5489 54.5334 58.3888 54.5335ZM21.2226 26.8889H5.721C5.52663 26.885 5.33747 26.952 5.18882 27.0773C5.1299 27.1245 5.08234 27.1844 5.04965 27.2525C5.01697 27.3205 5 27.3951 5 27.4706C5 27.5461 5.01697 27.6207 5.04965 27.6887C5.08234 27.7568 5.1299 27.8167 5.18882 27.8639C5.33739 27.9894 5.52655 28.0566 5.721 28.0529H21.2226V26.8889ZM42.7774 28.0529H58.279C58.4735 28.0566 58.6626 27.9894 58.8112 27.8639C58.8701 27.8167 58.9177 27.7568 58.9504 27.6887C58.983 27.6207 59 27.5461 59 27.4706C59 27.3951 58.983 27.3205 58.9504 27.2525C58.9177 27.1844 58.8701 27.1245 58.8112 27.0773C58.6625 26.952 58.4734 26.885 58.279 26.8889H42.7774V28.0529ZM24.0581 11.7335L23.9225 11.3495L23.7929 11.7203C23.7683 11.7962 23.7201 11.8622 23.6554 11.9088C23.5906 11.9554 23.5127 11.9802 23.4329 11.9795L23.0129 11.9825L23.3339 12.2081C23.4028 12.2491 23.4557 12.3122 23.4839 12.3873C23.5122 12.4623 23.5141 12.5446 23.4893 12.6209L23.3621 13.0036L23.6981 12.7745C23.7633 12.7288 23.8407 12.7038 23.9203 12.703C23.9998 12.7021 24.0778 12.7254 24.1439 12.7697L24.4865 13.0036L24.3593 12.6209C24.3356 12.5484 24.3362 12.4703 24.3609 12.3982C24.3855 12.3261 24.433 12.264 24.4961 12.2213L24.8351 11.9813L24.4151 11.9783C24.3374 11.9789 24.2613 11.9555 24.1974 11.9113C24.1335 11.867 24.0848 11.8041 24.0581 11.7311V11.7335ZM24.2831 10.0968L24.6899 11.2613L25.9768 11.2703C26.0745 11.2684 26.1689 11.3052 26.2395 11.3726C26.3101 11.4401 26.3511 11.5327 26.3536 11.6303C26.353 11.6874 26.3386 11.7435 26.3117 11.7939C26.2847 11.8442 26.246 11.8873 26.1988 11.9195L25.1603 12.6491L25.5497 13.8202C25.564 13.8663 25.569 13.9148 25.5642 13.9628C25.5595 14.0109 25.5451 14.0574 25.522 14.0998C25.4989 14.1422 25.4675 14.1795 25.4297 14.2095C25.3918 14.2395 25.3484 14.2615 25.3019 14.2744C25.2417 14.2925 25.1781 14.2959 25.1163 14.2844C25.0545 14.2729 24.9964 14.2469 24.9467 14.2084L23.9225 13.5094L22.8744 14.2234C22.792 14.279 22.6916 14.3012 22.5935 14.2853C22.4954 14.2695 22.407 14.2169 22.3464 14.1382C22.3126 14.0935 22.2903 14.0412 22.2812 13.9859C22.2721 13.9307 22.2765 13.874 22.2942 13.8208L22.6836 12.6497L21.6486 11.9219C21.6089 11.8951 21.5751 11.8605 21.5493 11.8201C21.5234 11.7798 21.5062 11.7346 21.4985 11.6873C21.4909 11.64 21.493 11.5916 21.5048 11.5452C21.5166 11.4988 21.5377 11.4552 21.567 11.4173C21.6052 11.3685 21.6546 11.3297 21.711 11.3041C21.7674 11.2785 21.8291 11.2669 21.891 11.2703L23.1581 11.2613L23.5643 10.0968C23.599 10.0038 23.6685 9.92794 23.758 9.88518C23.8475 9.84242 23.9502 9.83611 24.0443 9.86757C24.0994 9.88438 24.1498 9.91386 24.1915 9.95366C24.2332 9.99346 24.265 10.0425 24.2843 10.0968H24.2831ZM29.4483 11.7335L29.3133 11.3495L29.1837 11.7203C29.159 11.7961 29.1108 11.8621 29.0461 11.9087C28.9813 11.9553 28.9035 11.9801 28.8237 11.9795L28.4037 11.9825L28.7247 12.2081C28.7938 12.2489 28.8469 12.312 28.8752 12.3871C28.9036 12.4621 28.9055 12.5446 28.8807 12.6209L28.7535 13.0036L29.0895 12.7745C29.1545 12.7287 29.2319 12.7038 29.3114 12.7029C29.3908 12.7021 29.4687 12.7253 29.5347 12.7697L29.8773 13.0036L29.7501 12.6209C29.7266 12.5484 29.7273 12.4702 29.7521 12.3981C29.7768 12.3261 29.8244 12.264 29.8875 12.2213L30.2265 11.9813L29.8065 11.9783C29.7283 11.9795 29.6516 11.9563 29.5871 11.912C29.5226 11.8678 29.4735 11.8045 29.4465 11.7311L29.4483 11.7335ZM29.6739 10.0968L30.0801 11.2613L31.3676 11.2703C31.4651 11.2685 31.5594 11.3054 31.6299 11.3728C31.7003 11.4402 31.7413 11.5328 31.7438 11.6303C31.7432 11.6873 31.7288 11.7434 31.702 11.7937C31.6752 11.844 31.6366 11.8872 31.5896 11.9195L30.5547 12.6473L30.944 13.8184C30.9584 13.8645 30.9634 13.9129 30.9587 13.9609C30.954 14.0089 30.9397 14.0555 30.9166 14.0979C30.8936 14.1402 30.8622 14.1775 30.8245 14.2075C30.7867 14.2376 30.7433 14.2597 30.6969 14.2726C30.6366 14.2907 30.5729 14.2941 30.511 14.2826C30.4491 14.2711 30.3909 14.2451 30.3411 14.2066L29.3133 13.5094L28.2651 14.2234C28.1828 14.279 28.0824 14.3012 27.9843 14.2853C27.8862 14.2695 27.7978 14.2169 27.7372 14.1382C27.7034 14.0935 27.6809 14.0413 27.6717 13.986C27.6625 13.9307 27.6669 13.874 27.6844 13.8208L28.0738 12.6497L27.0382 11.9213C26.9985 11.8945 26.9647 11.8599 26.9388 11.8195C26.913 11.7792 26.8958 11.734 26.8881 11.6867C26.8805 11.6394 26.8826 11.591 26.8944 11.5446C26.9062 11.4982 26.9273 11.4546 26.9566 11.4167C26.9948 11.368 27.0442 11.3292 27.1006 11.3036C27.157 11.278 27.2187 11.2664 27.2806 11.2697L28.5477 11.2607L28.9545 10.0962C28.989 10.003 29.0584 9.92695 29.148 9.88415C29.2376 9.84136 29.3404 9.83519 29.4345 9.86697C29.4896 9.88386 29.54 9.91338 29.5816 9.95316C29.6233 9.99295 29.6551 10.0419 29.6745 10.0962L29.6739 10.0968ZM34.8391 11.7335L34.7035 11.3495L34.5739 11.7203C34.5493 11.7962 34.5011 11.8622 34.4363 11.9088C34.3716 11.9554 34.2937 11.9802 34.2139 11.9795L33.7939 11.9825L34.1149 12.2081C34.1837 12.2491 34.2366 12.3123 34.265 12.3872C34.2933 12.4622 34.2954 12.5446 34.2709 12.6209L34.1431 13.0036L34.4791 12.7745C34.5442 12.7288 34.6217 12.7038 34.7013 12.703C34.7808 12.7021 34.8588 12.7254 34.9249 12.7697L35.2675 13.0036L35.1403 12.6209C35.1168 12.5484 35.1175 12.4702 35.1423 12.3981C35.167 12.3261 35.2146 12.264 35.2777 12.2213L35.6161 11.9813L35.1961 11.9783C35.1183 11.9789 35.0423 11.9555 34.9784 11.9113C34.9145 11.867 34.8658 11.8041 34.8391 11.7311V11.7335ZM35.0641 10.0968L35.4709 11.2613L36.7578 11.2703C36.8554 11.2684 36.9499 11.3052 37.0205 11.3726C37.0911 11.4401 37.1321 11.5327 37.1346 11.6303C37.134 11.6874 37.1196 11.7435 37.0927 11.7939C37.0657 11.8442 37.027 11.8873 36.9798 11.9195L35.9449 12.6473L36.3342 13.8184C36.3486 13.8645 36.3536 13.913 36.3488 13.961C36.3441 14.0091 36.3297 14.0556 36.3066 14.098C36.2835 14.1404 36.2521 14.1777 36.2143 14.2077C36.1764 14.2377 36.133 14.2597 36.0864 14.2726C36.0263 14.2907 35.9626 14.2941 35.9009 14.2826C35.8391 14.2711 35.7809 14.2451 35.7313 14.2066L34.7035 13.5094L33.6553 14.2234C33.573 14.279 33.4726 14.3012 33.3745 14.2853C33.2764 14.2695 33.188 14.2169 33.1274 14.1382C33.0936 14.0935 33.0713 14.0412 33.0622 13.9859C33.0531 13.9307 33.0575 13.874 33.0752 13.8208L33.4645 12.6497L32.4296 11.9219C32.3899 11.8951 32.3561 11.8605 32.3302 11.8201C32.3044 11.7798 32.2872 11.7346 32.2795 11.6873C32.2719 11.64 32.274 11.5916 32.2858 11.5452C32.2976 11.4988 32.3187 11.4552 32.348 11.4173C32.3862 11.3685 32.4356 11.3297 32.492 11.3041C32.5484 11.2785 32.6101 11.2669 32.672 11.2703L33.9391 11.2613L34.3453 10.0968C34.38 10.0038 34.4495 9.92794 34.539 9.88518C34.6285 9.84242 34.7312 9.83611 34.8253 9.86757C34.8805 9.88429 34.9309 9.91375 34.9726 9.95356C35.0143 9.99337 35.046 10.0424 35.0653 10.0968H35.0641ZM40.2293 11.7335L40.0943 11.3495L39.9647 11.7203C39.94 11.7961 39.8918 11.8621 39.8271 11.9087C39.7623 11.9553 39.6845 11.9801 39.6047 11.9795L39.1847 11.9825L39.5057 12.2081C39.5748 12.2489 39.6279 12.312 39.6562 12.3871C39.6846 12.4621 39.6865 12.5446 39.6617 12.6209L39.5345 13.0036L39.8705 12.7745C39.9355 12.7287 40.0129 12.7038 40.0924 12.7029C40.1718 12.7021 40.2497 12.7253 40.3157 12.7697L40.6583 13.0036L40.5311 12.6209C40.5076 12.5484 40.5083 12.4702 40.5331 12.3981C40.5578 12.3261 40.6054 12.264 40.6685 12.2213L41.0075 11.9813L40.5875 11.9783C40.5093 11.9795 40.4326 11.9563 40.3681 11.912C40.3036 11.8678 40.2545 11.8045 40.2275 11.7311L40.2293 11.7335ZM40.4549 10.0968L40.8611 11.2613L42.1486 11.2703C42.2462 11.2682 42.3407 11.305 42.4112 11.3725C42.4817 11.44 42.5226 11.5327 42.5248 11.6303C42.5242 11.6873 42.5098 11.7434 42.483 11.7937C42.4562 11.844 42.4176 11.8872 42.3706 11.9195L41.3356 12.6473L41.725 13.8184C41.7394 13.8645 41.7444 13.9129 41.7397 13.9609C41.735 14.0089 41.7207 14.0555 41.6976 14.0979C41.6746 14.1402 41.6432 14.1775 41.6055 14.2075C41.5677 14.2376 41.5243 14.2597 41.4778 14.2726C41.4176 14.2907 41.3538 14.2941 41.292 14.2826C41.2301 14.2711 41.1719 14.2451 41.1221 14.2066L40.0943 13.5094L39.0461 14.2234C38.9638 14.279 38.8634 14.3012 38.7653 14.2853C38.6672 14.2695 38.5788 14.2169 38.5182 14.1382C38.4844 14.0935 38.4619 14.0413 38.4527 13.986C38.4435 13.9307 38.4479 13.874 38.4654 13.8208L38.8547 12.6497L37.8198 11.9213C37.7801 11.8945 37.7462 11.8599 37.7204 11.8195C37.6946 11.7792 37.6774 11.734 37.6697 11.6867C37.6621 11.6394 37.6642 11.591 37.676 11.5446C37.6878 11.4982 37.7089 11.4546 37.7382 11.4167C37.7764 11.368 37.8258 11.3292 37.8822 11.3036C37.9386 11.278 38.0003 11.2664 38.0622 11.2697L39.3293 11.2607L39.7361 10.0962C39.7706 10.003 39.84 9.92695 39.9296 9.88415C40.0192 9.84136 40.122 9.83519 40.2161 9.86697C40.2712 9.88386 40.3215 9.91338 40.3632 9.95316C40.4049 9.99295 40.4367 10.0419 40.4561 10.0962L40.4549 10.0968ZM57.499 46.2784H42.7774V53.0863H57.499V46.2784ZM42.7774 44.8282H57.499V29.4988H42.7774V44.8282ZM21.2226 44.8282V29.4988H6.50097V44.8282H21.2226ZM27.3544 53.0839V44.2625C27.3591 44.0659 27.4417 43.8792 27.584 43.7435C27.7264 43.6078 27.9168 43.5342 28.1134 43.5389H35.8867C36.0832 43.5342 36.2736 43.6078 36.416 43.7435C36.5583 43.8792 36.6409 44.0659 36.6456 44.2625V53.0863H41.2594V16.9425C41.259 16.8354 41.2372 16.7296 41.1953 16.6311C41.1533 16.5326 41.0921 16.4434 41.0153 16.3689L41.0075 16.3617L41.0045 16.3581C40.8386 16.2025 40.6193 16.1166 40.3919 16.1181H23.6081C23.3807 16.1166 23.1614 16.2025 22.9955 16.3581V16.3617L22.9877 16.3689C22.911 16.4435 22.8499 16.5327 22.8079 16.6311C22.766 16.7296 22.7441 16.8355 22.7436 16.9425V53.0863L27.3544 53.0839ZM35.1277 53.0839H28.8723V44.9842H35.1277V53.0839ZM8.90088 33.1089C8.80279 33.1138 8.70472 33.0987 8.61263 33.0645C8.52055 33.0303 8.43637 32.9778 8.36521 32.9101C8.29405 32.8424 8.2374 32.761 8.19868 32.6707C8.15997 32.5804 8.14 32.4832 8.14 32.385C8.14 32.2868 8.15997 32.1896 8.19868 32.0993C8.2374 32.0091 8.29405 31.9276 8.36521 31.8599C8.43637 31.7922 8.52055 31.7397 8.61263 31.7055C8.70472 31.6713 8.80279 31.6562 8.90088 31.6611H10.7356C10.8337 31.6562 10.9318 31.6713 11.0239 31.7055C11.1159 31.7397 11.2001 31.7922 11.2713 31.8599C11.3424 31.9276 11.3991 32.0091 11.4378 32.0993C11.4765 32.1896 11.4965 32.2868 11.4965 32.385C11.4965 32.4832 11.4765 32.5804 11.4378 32.6707C11.3991 32.761 11.3424 32.8424 11.2713 32.9101C11.2001 32.9778 11.1159 33.0303 11.0239 33.0645C10.9318 33.0987 10.8337 33.1138 10.7356 33.1089H8.90088ZM13.1367 33.1089C13.0386 33.1138 12.9406 33.0987 12.8485 33.0645C12.7564 33.0303 12.6722 32.9778 12.6011 32.9101C12.5299 32.8424 12.4732 32.761 12.4345 32.6707C12.3958 32.5804 12.3758 32.4832 12.3758 32.385C12.3758 32.2868 12.3958 32.1896 12.4345 32.0993C12.4732 32.0091 12.5299 31.9276 12.6011 31.8599C12.6722 31.7922 12.7564 31.7397 12.8485 31.7055C12.9406 31.6713 13.0386 31.6562 13.1367 31.6611H14.9709C15.0689 31.6562 15.167 31.6713 15.2591 31.7055C15.3512 31.7397 15.4354 31.7922 15.5065 31.8599C15.5777 31.9276 15.6343 32.0091 15.6731 32.0993C15.7118 32.1896 15.7317 32.2868 15.7317 32.385C15.7317 32.4832 15.7118 32.5804 15.6731 32.6707C15.6343 32.761 15.5777 32.8424 15.5065 32.9101C15.4354 32.9778 15.3512 33.0303 15.2591 33.0645C15.167 33.0987 15.0689 33.1138 14.9709 33.1089H13.1367ZM17.3726 33.1089C17.2745 33.1138 17.1764 33.0987 17.0843 33.0645C16.9922 33.0303 16.908 32.9778 16.8369 32.9101C16.7657 32.8424 16.7091 32.761 16.6704 32.6707C16.6316 32.5804 16.6117 32.4832 16.6117 32.385C16.6117 32.2868 16.6316 32.1896 16.6704 32.0993C16.7091 32.0091 16.7657 31.9276 16.8369 31.8599C16.908 31.7922 16.9922 31.7397 17.0843 31.7055C17.1764 31.6713 17.2745 31.6562 17.3726 31.6611H19.2067C19.3048 31.6562 19.4029 31.6713 19.4949 31.7055C19.587 31.7397 19.6712 31.7922 19.7424 31.8599C19.8135 31.9276 19.8702 32.0091 19.9089 32.0993C19.9476 32.1896 19.9676 32.2868 19.9676 32.385C19.9676 32.4832 19.9476 32.5804 19.9089 32.6707C19.8702 32.761 19.8135 32.8424 19.7424 32.9101C19.6712 32.9778 19.587 33.0303 19.4949 33.0645C19.4029 33.0987 19.3048 33.1138 19.2067 33.1089H17.3726ZM8.90088 36.2108C8.80279 36.2157 8.70472 36.2006 8.61263 36.1664C8.52055 36.1322 8.43637 36.0797 8.36521 36.012C8.29405 35.9443 8.2374 35.8628 8.19868 35.7726C8.15997 35.6823 8.14 35.5851 8.14 35.4869C8.14 35.3887 8.15997 35.2915 8.19868 35.2012C8.2374 35.1109 8.29405 35.0295 8.36521 34.9618C8.43637 34.8941 8.52055 34.8416 8.61263 34.8074C8.70472 34.7732 8.80279 34.7581 8.90088 34.763H10.7356C10.8337 34.7581 10.9318 34.7732 11.0239 34.8074C11.1159 34.8416 11.2001 34.8941 11.2713 34.9618C11.3424 35.0295 11.3991 35.1109 11.4378 35.2012C11.4765 35.2915 11.4965 35.3887 11.4965 35.4869C11.4965 35.5851 11.4765 35.6823 11.4378 35.7726C11.3991 35.8628 11.3424 35.9443 11.2713 36.012C11.2001 36.0797 11.1159 36.1322 11.0239 36.1664C10.9318 36.2006 10.8337 36.2157 10.7356 36.2108H8.90088ZM13.1367 36.2108C13.0386 36.2157 12.9406 36.2006 12.8485 36.1664C12.7564 36.1322 12.6722 36.0797 12.6011 36.012C12.5299 35.9443 12.4732 35.8628 12.4345 35.7726C12.3958 35.6823 12.3758 35.5851 12.3758 35.4869C12.3758 35.3887 12.3958 35.2915 12.4345 35.2012C12.4732 35.1109 12.5299 35.0295 12.6011 34.9618C12.6722 34.8941 12.7564 34.8416 12.8485 34.8074C12.9406 34.7732 13.0386 34.7581 13.1367 34.763H14.9709C15.0689 34.7581 15.167 34.7732 15.2591 34.8074C15.3512 34.8416 15.4354 34.8941 15.5065 34.9618C15.5777 35.0295 15.6343 35.1109 15.6731 35.2012C15.7118 35.2915 15.7317 35.3887 15.7317 35.4869C15.7317 35.5851 15.7118 35.6823 15.6731 35.7726C15.6343 35.8628 15.5777 35.9443 15.5065 36.012C15.4354 36.0797 15.3512 36.1322 15.2591 36.1664C15.167 36.2006 15.0689 36.2157 14.9709 36.2108H13.1367ZM17.3726 36.2108C17.2745 36.2157 17.1764 36.2006 17.0843 36.1664C16.9922 36.1322 16.908 36.0797 16.8369 36.012C16.7657 35.9443 16.7091 35.8628 16.6704 35.7726C16.6316 35.6823 16.6117 35.5851 16.6117 35.4869C16.6117 35.3887 16.6316 35.2915 16.6704 35.2012C16.7091 35.1109 16.7657 35.0295 16.8369 34.9618C16.908 34.8941 16.9922 34.8416 17.0843 34.8074C17.1764 34.7732 17.2745 34.7581 17.3726 34.763H19.2067C19.3048 34.7581 19.4029 34.7732 19.4949 34.8074C19.587 34.8416 19.6712 34.8941 19.7424 34.9618C19.8135 35.0295 19.8702 35.1109 19.9089 35.2012C19.9476 35.2915 19.9676 35.3887 19.9676 35.4869C19.9676 35.5851 19.9476 35.6823 19.9089 35.7726C19.8702 35.8628 19.8135 35.9443 19.7424 36.012C19.6712 36.0797 19.587 36.1322 19.4949 36.1664C19.4029 36.2006 19.3048 36.2157 19.2067 36.2108H17.3726ZM8.90088 39.3126C8.80338 39.3166 8.70609 39.3008 8.61484 39.2663C8.52358 39.2317 8.44026 39.179 8.36987 39.1115C8.29948 39.0439 8.24348 38.9628 8.20522 38.873C8.16696 38.7832 8.14724 38.6867 8.14724 38.5891C8.14724 38.4915 8.16696 38.3949 8.20522 38.3051C8.24348 38.2154 8.29948 38.1343 8.36987 38.0667C8.44026 37.9991 8.52358 37.9464 8.61484 37.9119C8.70609 37.8773 8.80338 37.8615 8.90088 37.8655H10.7356C10.8331 37.8615 10.9304 37.8773 11.0217 37.9119C11.1129 37.9464 11.1962 37.9991 11.2666 38.0667C11.337 38.1343 11.393 38.2154 11.4313 38.3051C11.4695 38.3949 11.4893 38.4915 11.4893 38.5891C11.4893 38.6867 11.4695 38.7832 11.4313 38.873C11.393 38.9628 11.337 39.0439 11.2666 39.1115C11.1962 39.179 11.1129 39.2317 11.0217 39.2663C10.9304 39.3008 10.8331 39.3166 10.7356 39.3126H8.90088ZM13.1367 39.3126C13.0392 39.3166 12.9419 39.3008 12.8507 39.2663C12.7594 39.2317 12.6761 39.179 12.6057 39.1115C12.5353 39.0439 12.4793 38.9628 12.4411 38.873C12.4028 38.7832 12.3831 38.6867 12.3831 38.5891C12.3831 38.4915 12.4028 38.3949 12.4411 38.3051C12.4793 38.2154 12.5353 38.1343 12.6057 38.0667C12.6761 37.9991 12.7594 37.9464 12.8507 37.9119C12.9419 37.8773 13.0392 37.8615 13.1367 37.8655H14.9709C15.0684 37.8615 15.1656 37.8773 15.2569 37.9119C15.3482 37.9464 15.4315 37.9991 15.5019 38.0667C15.5723 38.1343 15.6283 38.2154 15.6665 38.3051C15.7048 38.3949 15.7245 38.4915 15.7245 38.5891C15.7245 38.6867 15.7048 38.7832 15.6665 38.873C15.6283 38.9628 15.5723 39.0439 15.5019 39.1115C15.4315 39.179 15.3482 39.2317 15.2569 39.2663C15.1656 39.3008 15.0684 39.3166 14.9709 39.3126H13.1367ZM17.3726 39.3126C17.2751 39.3166 17.1778 39.3008 17.0865 39.2663C16.9953 39.2317 16.9119 39.179 16.8415 39.1115C16.7712 39.0439 16.7152 38.9628 16.6769 38.873C16.6386 38.7832 16.6189 38.6867 16.6189 38.5891C16.6189 38.4915 16.6386 38.3949 16.6769 38.3051C16.7152 38.2154 16.7712 38.1343 16.8415 38.0667C16.9119 37.9991 16.9953 37.9464 17.0865 37.9119C17.1778 37.8773 17.2751 37.8615 17.3726 37.8655H19.2067C19.3042 37.8615 19.4015 37.8773 19.4927 37.9119C19.584 37.9464 19.6673 37.9991 19.7377 38.0667C19.8081 38.1343 19.8641 38.2154 19.9024 38.3051C19.9406 38.3949 19.9603 38.4915 19.9603 38.5891C19.9603 38.6867 19.9406 38.7832 19.9024 38.873C19.8641 38.9628 19.8081 39.0439 19.7377 39.1115C19.6673 39.179 19.584 39.2317 19.4927 39.2663C19.4015 39.3008 19.3042 39.3166 19.2067 39.3126H17.3726ZM8.90088 42.4145C8.80338 42.4185 8.70609 42.4027 8.61484 42.3682C8.52358 42.3336 8.44026 42.2809 8.36987 42.2133C8.29948 42.1458 8.24348 42.0646 8.20522 41.9749C8.16696 41.8851 8.14724 41.7885 8.14724 41.691C8.14724 41.5934 8.16696 41.4968 8.20522 41.407C8.24348 41.3173 8.29948 41.2361 8.36987 41.1686C8.44026 41.101 8.52358 41.0483 8.61484 41.0138C8.70609 40.9792 8.80338 40.9634 8.90088 40.9674H10.7356C10.8331 40.9634 10.9304 40.9792 11.0217 41.0138C11.1129 41.0483 11.1962 41.101 11.2666 41.1686C11.337 41.2361 11.393 41.3173 11.4313 41.407C11.4695 41.4968 11.4893 41.5934 11.4893 41.691C11.4893 41.7885 11.4695 41.8851 11.4313 41.9749C11.393 42.0646 11.337 42.1458 11.2666 42.2133C11.1962 42.2809 11.1129 42.3336 11.0217 42.3682C10.9304 42.4027 10.8331 42.4185 10.7356 42.4145H8.90088ZM13.1367 42.4145C13.0392 42.4185 12.9419 42.4027 12.8507 42.3682C12.7594 42.3336 12.6761 42.2809 12.6057 42.2133C12.5353 42.1458 12.4793 42.0646 12.4411 41.9749C12.4028 41.8851 12.3831 41.7885 12.3831 41.691C12.3831 41.5934 12.4028 41.4968 12.4411 41.407C12.4793 41.3173 12.5353 41.2361 12.6057 41.1686C12.6761 41.101 12.7594 41.0483 12.8507 41.0138C12.9419 40.9792 13.0392 40.9634 13.1367 40.9674H14.9709C15.0684 40.9634 15.1656 40.9792 15.2569 41.0138C15.3482 41.0483 15.4315 41.101 15.5019 41.1686C15.5723 41.2361 15.6283 41.3173 15.6665 41.407C15.7048 41.4968 15.7245 41.5934 15.7245 41.691C15.7245 41.7885 15.7048 41.8851 15.6665 41.9749C15.6283 42.0646 15.5723 42.1458 15.5019 42.2133C15.4315 42.2809 15.3482 42.3336 15.2569 42.3682C15.1656 42.4027 15.0684 42.4185 14.9709 42.4145H13.1367ZM17.3726 42.4145C17.2751 42.4185 17.1778 42.4027 17.0865 42.3682C16.9953 42.3336 16.9119 42.2809 16.8415 42.2133C16.7712 42.1458 16.7152 42.0646 16.6769 41.9749C16.6386 41.8851 16.6189 41.7885 16.6189 41.691C16.6189 41.5934 16.6386 41.4968 16.6769 41.407C16.7152 41.3173 16.7712 41.2361 16.8415 41.1686C16.9119 41.101 16.9953 41.0483 17.0865 41.0138C17.1778 40.9792 17.2751 40.9634 17.3726 40.9674H19.2067C19.3042 40.9634 19.4015 40.9792 19.4927 41.0138C19.584 41.0483 19.6673 41.101 19.7377 41.1686C19.8081 41.2361 19.8641 41.3173 19.9024 41.407C19.9406 41.4968 19.9603 41.5934 19.9603 41.691C19.9603 41.7885 19.9406 41.8851 19.9024 41.9749C19.8641 42.0646 19.8081 42.1458 19.7377 42.2133C19.6673 42.2809 19.584 42.3336 19.4927 42.3682C19.4015 42.4027 19.3042 42.4185 19.2067 42.4145H17.3726ZM45.0087 33.1089C44.9106 33.1138 44.8125 33.0987 44.7205 33.0645C44.6284 33.0303 44.5442 32.9778 44.473 32.9101C44.4019 32.8424 44.3452 32.761 44.3065 32.6707C44.2678 32.5804 44.2478 32.4832 44.2478 32.385C44.2478 32.2868 44.2678 32.1896 44.3065 32.0993C44.3452 32.0091 44.4019 31.9276 44.473 31.8599C44.5442 31.7922 44.6284 31.7397 44.7205 31.7055C44.8125 31.6713 44.9106 31.6562 45.0087 31.6611H46.8428C46.9409 31.6562 47.039 31.6713 47.1311 31.7055C47.2232 31.7397 47.3073 31.7922 47.3785 31.8599C47.4497 31.9276 47.5063 32.0091 47.545 32.0993C47.5838 32.1896 47.6037 32.2868 47.6037 32.385C47.6037 32.4832 47.5838 32.5804 47.545 32.6707C47.5063 32.761 47.4497 32.8424 47.3785 32.9101C47.3073 32.9778 47.2232 33.0303 47.1311 33.0645C47.039 33.0987 46.9409 33.1138 46.8428 33.1089H45.0087ZM49.2445 33.1089C49.1464 33.1138 49.0484 33.0987 48.9563 33.0645C48.8642 33.0303 48.78 32.9778 48.7089 32.9101C48.6377 32.8424 48.5811 32.761 48.5423 32.6707C48.5036 32.5804 48.4837 32.4832 48.4837 32.385C48.4837 32.2868 48.5036 32.1896 48.5423 32.0993C48.5811 32.0091 48.6377 31.9276 48.7089 31.8599C48.78 31.7922 48.8642 31.7397 48.9563 31.7055C49.0484 31.6713 49.1464 31.6562 49.2445 31.6611H51.0793C51.1774 31.6562 51.2754 31.6713 51.3675 31.7055C51.4596 31.7397 51.5438 31.7922 51.6149 31.8599C51.6861 31.9276 51.7428 32.0091 51.7815 32.0993C51.8202 32.1896 51.8402 32.2868 51.8402 32.385C51.8402 32.4832 51.8202 32.5804 51.7815 32.6707C51.7428 32.761 51.6861 32.8424 51.6149 32.9101C51.5438 32.9778 51.4596 33.0303 51.3675 33.0645C51.2754 33.0987 51.1774 33.1138 51.0793 33.1089H49.2445ZM53.4798 33.1089C53.3817 33.1138 53.2836 33.0987 53.1915 33.0645C53.0994 33.0303 53.0153 32.9778 52.9441 32.9101C52.873 32.8424 52.8163 32.761 52.7776 32.6707C52.7389 32.5804 52.7189 32.4832 52.7189 32.385C52.7189 32.2868 52.7389 32.1896 52.7776 32.0993C52.8163 32.0091 52.873 31.9276 52.9441 31.8599C53.0153 31.7922 53.0994 31.7397 53.1915 31.7055C53.2836 31.6713 53.3817 31.6562 53.4798 31.6611H55.3145C55.4126 31.6562 55.5107 31.6713 55.6028 31.7055C55.6948 31.7397 55.779 31.7922 55.8502 31.8599C55.9213 31.9276 55.978 32.0091 56.0167 32.0993C56.0554 32.1896 56.0754 32.2868 56.0754 32.385C56.0754 32.4832 56.0554 32.5804 56.0167 32.6707C55.978 32.761 55.9213 32.8424 55.8502 32.9101C55.779 32.9778 55.6948 33.0303 55.6028 33.0645C55.5107 33.0987 55.4126 33.1138 55.3145 33.1089H53.4798ZM45.0087 36.2108C44.9106 36.2157 44.8125 36.2006 44.7205 36.1664C44.6284 36.1322 44.5442 36.0797 44.473 36.012C44.4019 35.9443 44.3452 35.8628 44.3065 35.7726C44.2678 35.6823 44.2478 35.5851 44.2478 35.4869C44.2478 35.3887 44.2678 35.2915 44.3065 35.2012C44.3452 35.1109 44.4019 35.0295 44.473 34.9618C44.5442 34.8941 44.6284 34.8416 44.7205 34.8074C44.8125 34.7732 44.9106 34.7581 45.0087 34.763H46.8428C46.9409 34.7581 47.039 34.7732 47.1311 34.8074C47.2232 34.8416 47.3073 34.8941 47.3785 34.9618C47.4497 35.0295 47.5063 35.1109 47.545 35.2012C47.5838 35.2915 47.6037 35.3887 47.6037 35.4869C47.6037 35.5851 47.5838 35.6823 47.545 35.7726C47.5063 35.8628 47.4497 35.9443 47.3785 36.012C47.3073 36.0797 47.2232 36.1322 47.1311 36.1664C47.039 36.2006 46.9409 36.2157 46.8428 36.2108H45.0087ZM49.2445 36.2108C49.1464 36.2157 49.0484 36.2006 48.9563 36.1664C48.8642 36.1322 48.78 36.0797 48.7089 36.012C48.6377 35.9443 48.5811 35.8628 48.5423 35.7726C48.5036 35.6823 48.4837 35.5851 48.4837 35.4869C48.4837 35.3887 48.5036 35.2915 48.5423 35.2012C48.5811 35.1109 48.6377 35.0295 48.7089 34.9618C48.78 34.8941 48.8642 34.8416 48.9563 34.8074C49.0484 34.7732 49.1464 34.7581 49.2445 34.763H51.0793C51.1774 34.7581 51.2754 34.7732 51.3675 34.8074C51.4596 34.8416 51.5438 34.8941 51.6149 34.9618C51.6861 35.0295 51.7428 35.1109 51.7815 35.2012C51.8202 35.2915 51.8402 35.3887 51.8402 35.4869C51.8402 35.5851 51.8202 35.6823 51.7815 35.7726C51.7428 35.8628 51.6861 35.9443 51.6149 36.012C51.5438 36.0797 51.4596 36.1322 51.3675 36.1664C51.2754 36.2006 51.1774 36.2157 51.0793 36.2108H49.2445ZM53.4798 36.2108C53.3817 36.2157 53.2836 36.2006 53.1915 36.1664C53.0994 36.1322 53.0153 36.0797 52.9441 36.012C52.873 35.9443 52.8163 35.8628 52.7776 35.7726C52.7389 35.6823 52.7189 35.5851 52.7189 35.4869C52.7189 35.3887 52.7389 35.2915 52.7776 35.2012C52.8163 35.1109 52.873 35.0295 52.9441 34.9618C53.0153 34.8941 53.0994 34.8416 53.1915 34.8074C53.2836 34.7732 53.3817 34.7581 53.4798 34.763H55.3145C55.4126 34.7581 55.5107 34.7732 55.6028 34.8074C55.6948 34.8416 55.779 34.8941 55.8502 34.9618C55.9213 35.0295 55.978 35.1109 56.0167 35.2012C56.0554 35.2915 56.0754 35.3887 56.0754 35.4869C56.0754 35.5851 56.0554 35.6823 56.0167 35.7726C55.978 35.8628 55.9213 35.9443 55.8502 36.012C55.779 36.0797 55.6948 36.1322 55.6028 36.1664C55.5107 36.2006 55.4126 36.2157 55.3145 36.2108H53.4798ZM45.0087 39.3126C44.9112 39.3166 44.8139 39.3008 44.7227 39.2663C44.6314 39.2317 44.5481 39.179 44.4777 39.1115C44.4073 39.0439 44.3513 38.9628 44.313 38.873C44.2748 38.7832 44.2551 38.6867 44.2551 38.5891C44.2551 38.4915 44.2748 38.3949 44.313 38.3051C44.3513 38.2154 44.4073 38.1343 44.4777 38.0667C44.5481 37.9991 44.6314 37.9464 44.7227 37.9119C44.8139 37.8773 44.9112 37.8615 45.0087 37.8655H46.8428C46.9403 37.8615 47.0376 37.8773 47.1289 37.9119C47.2201 37.9464 47.3035 37.9991 47.3738 38.0667C47.4442 38.1343 47.5002 38.2154 47.5385 38.3051C47.5768 38.3949 47.5965 38.4915 47.5965 38.5891C47.5965 38.6867 47.5768 38.7832 47.5385 38.873C47.5002 38.9628 47.4442 39.0439 47.3738 39.1115C47.3035 39.179 47.2201 39.2317 47.1289 39.2663C47.0376 39.3008 46.9403 39.3166 46.8428 39.3126H45.0087ZM49.2445 39.3126C49.147 39.3166 49.0497 39.3008 48.9585 39.2663C48.8672 39.2317 48.7839 39.179 48.7135 39.1115C48.6431 39.0439 48.5871 38.9628 48.5489 38.873C48.5106 38.7832 48.4909 38.6867 48.4909 38.5891C48.4909 38.4915 48.5106 38.3949 48.5489 38.3051C48.5871 38.2154 48.6431 38.1343 48.7135 38.0667C48.7839 37.9991 48.8672 37.9464 48.9585 37.9119C49.0497 37.8773 49.147 37.8615 49.2445 37.8655H51.0793C51.1768 37.8615 51.2741 37.8773 51.3653 37.9119C51.4566 37.9464 51.5399 37.9991 51.6103 38.0667C51.6807 38.1343 51.7367 38.2154 51.7749 38.3051C51.8132 38.3949 51.8329 38.4915 51.8329 38.5891C51.8329 38.6867 51.8132 38.7832 51.7749 38.873C51.7367 38.9628 51.6807 39.0439 51.6103 39.1115C51.5399 39.179 51.4566 39.2317 51.3653 39.2663C51.2741 39.3008 51.1768 39.3166 51.0793 39.3126H49.2445ZM53.4798 39.3126C53.3823 39.3166 53.285 39.3008 53.1937 39.2663C53.1025 39.2317 53.0192 39.179 52.9488 39.1115C52.8784 39.0439 52.8224 38.9628 52.7841 38.873C52.7459 38.7832 52.7261 38.6867 52.7261 38.5891C52.7261 38.4915 52.7459 38.3949 52.7841 38.3051C52.8224 38.2154 52.8784 38.1343 52.9488 38.0667C53.0192 37.9991 53.1025 37.9464 53.1937 37.9119C53.285 37.8773 53.3823 37.8615 53.4798 37.8655H55.3145C55.412 37.8615 55.5093 37.8773 55.6006 37.9119C55.6918 37.9464 55.7751 37.9991 55.8455 38.0667C55.9159 38.1343 55.9719 38.2154 56.0102 38.3051C56.0484 38.3949 56.0682 38.4915 56.0682 38.5891C56.0682 38.6867 56.0484 38.7832 56.0102 38.873C55.9719 38.9628 55.9159 39.0439 55.8455 39.1115C55.7751 39.179 55.6918 39.2317 55.6006 39.2663C55.5093 39.3008 55.412 39.3166 55.3145 39.3126H53.4798ZM45.0087 42.4145C44.9112 42.4185 44.8139 42.4027 44.7227 42.3682C44.6314 42.3336 44.5481 42.2809 44.4777 42.2133C44.4073 42.1458 44.3513 42.0646 44.313 41.9749C44.2748 41.8851 44.2551 41.7885 44.2551 41.691C44.2551 41.5934 44.2748 41.4968 44.313 41.407C44.3513 41.3173 44.4073 41.2361 44.4777 41.1686C44.5481 41.101 44.6314 41.0483 44.7227 41.0138C44.8139 40.9792 44.9112 40.9634 45.0087 40.9674H46.8428C46.9403 40.9634 47.0376 40.9792 47.1289 41.0138C47.2201 41.0483 47.3035 41.101 47.3738 41.1686C47.4442 41.2361 47.5002 41.3173 47.5385 41.407C47.5768 41.4968 47.5965 41.5934 47.5965 41.691C47.5965 41.7885 47.5768 41.8851 47.5385 41.9749C47.5002 42.0646 47.4442 42.1458 47.3738 42.2133C47.3035 42.2809 47.2201 42.3336 47.1289 42.3682C47.0376 42.4027 46.9403 42.4185 46.8428 42.4145H45.0087ZM49.2445 42.4145C49.147 42.4185 49.0497 42.4027 48.9585 42.3682C48.8672 42.3336 48.7839 42.2809 48.7135 42.2133C48.6431 42.1458 48.5871 42.0646 48.5489 41.9749C48.5106 41.8851 48.4909 41.7885 48.4909 41.691C48.4909 41.5934 48.5106 41.4968 48.5489 41.407C48.5871 41.3173 48.6431 41.2361 48.7135 41.1686C48.7839 41.101 48.8672 41.0483 48.9585 41.0138C49.0497 40.9792 49.147 40.9634 49.2445 40.9674H51.0793C51.1768 40.9634 51.2741 40.9792 51.3653 41.0138C51.4566 41.0483 51.5399 41.101 51.6103 41.1686C51.6807 41.2361 51.7367 41.3173 51.7749 41.407C51.8132 41.4968 51.8329 41.5934 51.8329 41.691C51.8329 41.7885 51.8132 41.8851 51.7749 41.9749C51.7367 42.0646 51.6807 42.1458 51.6103 42.2133C51.5399 42.2809 51.4566 42.3336 51.3653 42.3682C51.2741 42.4027 51.1768 42.4185 51.0793 42.4145H49.2445ZM53.4798 42.4145C53.3823 42.4185 53.285 42.4027 53.1937 42.3682C53.1025 42.3336 53.0192 42.2809 52.9488 42.2133C52.8784 42.1458 52.8224 42.0646 52.7841 41.9749C52.7459 41.8851 52.7261 41.7885 52.7261 41.691C52.7261 41.5934 52.7459 41.4968 52.7841 41.407C52.8224 41.3173 52.8784 41.2361 52.9488 41.1686C53.0192 41.101 53.1025 41.0483 53.1937 41.0138C53.285 40.9792 53.3823 40.9634 53.4798 40.9674H55.3145C55.412 40.9634 55.5093 40.9792 55.6006 41.0138C55.6918 41.0483 55.7751 41.101 55.8455 41.1686C55.9159 41.2361 55.9719 41.3173 56.0102 41.407C56.0484 41.4968 56.0682 41.5934 56.0682 41.691C56.0682 41.7885 56.0484 41.8851 56.0102 41.9749C55.9719 42.0646 55.9159 42.1458 55.8455 42.2133C55.7751 42.2809 55.6918 42.3336 55.6006 42.3682C55.5093 42.4027 55.412 42.4185 55.3145 42.4145H53.4798ZM41.8432 15.1384C41.4218 14.8313 40.9134 14.6665 40.3919 14.668H23.6081C23.0866 14.6665 22.5783 14.8313 22.1568 15.1384H20.346V9H43.6702V15.1384H41.8432ZM32.7338 24.729V18.2204H38.8025V24.729H32.7338ZM25.1471 24.729V18.2204H31.2158V24.729H25.1471ZM31.2158 34.5326V41.0442H25.1471V34.5326H31.2158ZM38.8025 34.5326V41.0442H32.7338V34.5326H38.8025ZM40.3205 33.8067V41.7683C40.3181 41.8658 40.2965 41.9618 40.2569 42.0509C40.2174 42.14 40.1606 42.2204 40.09 42.2876C40.0193 42.3547 39.9361 42.4073 39.8451 42.4422C39.7541 42.4772 39.6572 42.4939 39.5597 42.4913H24.3881C24.1915 42.496 24.0012 42.4225 23.8588 42.2869C23.7164 42.1514 23.6336 41.9649 23.6285 41.7683V17.4969C23.6332 17.3001 23.7159 17.1133 23.8584 16.9775C24.0008 16.8417 24.1913 16.768 24.3881 16.7727H39.5597C39.7564 16.7682 39.9468 16.8419 40.0891 16.9777C40.2314 17.1135 40.314 17.3002 40.3187 17.4969V33.8067H40.3205ZM32.7338 33.0867V26.1791H38.8025V33.0855L32.7338 33.0867ZM25.1471 33.0867V26.1791H31.2158V33.0855L25.1471 33.0867ZM6.50097 53.0863H21.2244V46.2784H6.50097V53.0863Z" fill="#5E4ED1"/>
</svg>
