<svg width="64" height="64" viewBox="0 0 64 64" fill="none" xmlns="http://www.w3.org/2000/svg">
<path d="M6 19.6943V49.0431C6 50.8631 7.47678 52.3398 9.29678 52.3398H10.8152C10.212 51.5183 9.86883 50.5094 9.86883 49.4175V16.3871H9.29678C7.47678 16.3871 6 17.8743 6 19.6943Z" fill="#5E4ED1"/>
<path d="M54.7033 16.3975L26.5089 16.3871V49.4175C26.5089 50.5094 26.1657 51.5183 25.5729 52.3398H54.7033C56.5232 52.3398 58 50.8631 58 49.0431V19.6943C58 17.8847 56.5232 16.3975 54.7033 16.3975ZM34.7561 47.9094H31.4592C30.8873 47.9094 30.4192 47.4415 30.4192 46.8694C30.4192 46.287 30.8873 45.8294 31.4592 45.8294H34.7561C35.3281 45.8294 35.7961 46.287 35.7961 46.8694C35.7961 47.4415 35.3281 47.9094 34.7561 47.9094ZM34.7561 43.2815H31.4592C30.8873 43.2815 30.4192 42.8135 30.4192 42.2415C30.4192 41.6694 30.8873 41.2015 31.4592 41.2015H34.7561C35.3281 41.2015 35.7961 41.6694 35.7961 42.2415C35.7961 42.8135 35.3281 43.2815 34.7561 43.2815ZM34.7561 38.6639H31.4592C30.8873 38.6639 30.4192 38.1959 30.4192 37.6239C30.4192 37.0415 30.8873 36.5839 31.4592 36.5839H34.7561C35.3281 36.5839 35.7961 37.0415 35.7961 37.6239C35.7961 38.1959 35.3281 38.6639 34.7561 38.6639ZM34.7561 34.0359H31.4592C30.8873 34.0359 30.4192 33.5783 30.4192 32.9959C30.4192 32.4239 30.8873 31.9559 31.4592 31.9559H34.7561C35.3281 31.9559 35.7961 32.4239 35.7961 32.9959C35.7961 33.5783 35.3281 34.0359 34.7561 34.0359ZM43.4296 47.9094H40.1433C39.5609 47.9094 39.1033 47.4415 39.1033 46.8694C39.1033 46.287 39.5609 45.8294 40.1433 45.8294H43.4296C44.012 45.8294 44.4696 46.287 44.4696 46.8694C44.4696 47.4415 44.012 47.9094 43.4296 47.9094ZM43.4296 43.2815H40.1433C39.5609 43.2815 39.1033 42.8135 39.1033 42.2415C39.1033 41.6694 39.5609 41.2015 40.1433 41.2015H43.4296C44.012 41.2015 44.4696 41.6694 44.4696 42.2415C44.4696 42.8135 44.012 43.2815 43.4296 43.2815ZM43.4296 38.6639H40.1433C39.5609 38.6639 39.1033 38.1959 39.1033 37.6239C39.1033 37.0415 39.5609 36.5839 40.1433 36.5839H43.4296C44.012 36.5839 44.4696 37.0415 44.4696 37.6239C44.4696 38.1959 44.012 38.6639 43.4296 38.6639ZM43.4296 34.0359H40.1433C39.5609 34.0359 39.1033 33.5783 39.1033 32.9959C39.1033 32.4239 39.5609 31.9559 40.1433 31.9559H43.4296C44.012 31.9559 44.4696 32.4239 44.4696 32.9959C44.4696 33.5783 44.012 34.0359 43.4296 34.0359ZM52.1137 47.9094H48.8168C48.2448 47.9094 47.7768 47.4415 47.7768 46.8694C47.7768 46.287 48.2448 45.8294 48.8168 45.8294H52.1137C52.6857 45.8294 53.1537 46.287 53.1537 46.8694C53.1537 47.4415 52.6857 47.9094 52.1137 47.9094ZM52.1137 43.2815H48.8168C48.2448 43.2815 47.7768 42.8135 47.7768 42.2415C47.7768 41.6694 48.2448 41.2015 48.8168 41.2015H52.1137C52.6857 41.2015 53.1537 41.6694 53.1537 42.2415C53.1537 42.8135 52.6857 43.2815 52.1137 43.2815ZM52.1137 38.6639H48.8168C48.2448 38.6639 47.7768 38.1959 47.7768 37.6239C47.7768 37.0415 48.2448 36.5839 48.8168 36.5839H52.1137C52.6857 36.5839 53.1537 37.0415 53.1537 37.6239C53.1537 38.1959 52.6857 38.6639 52.1137 38.6639ZM52.1137 34.0359H48.8168C48.2448 34.0359 47.7768 33.5783 47.7768 32.9959C47.7768 32.4239 48.2448 31.9559 48.8168 31.9559H52.1137C52.6857 31.9559 53.1537 32.4239 53.1537 32.9959C53.1537 33.5783 52.6857 34.0359 52.1137 34.0359ZM53.1537 28.0975C53.1537 28.6799 52.6857 29.1375 52.1137 29.1375H31.4592C30.8873 29.1375 30.4192 28.6799 30.4192 28.0975V21.8575C30.4192 21.2855 30.8873 20.8175 31.4592 20.8175H52.1137C52.6857 20.8175 53.1537 21.2855 53.1537 21.8575V28.0975Z" fill="#5E4ED1"/>
<path d="M21.4959 11H14.8919C13.2695 11 11.9487 12.3208 11.9487 13.9328V49.4176C11.9487 51.0295 13.2695 52.3504 14.8919 52.3504H21.4959C23.1183 52.3504 24.4287 51.0295 24.4287 49.4176V13.9328C24.4287 12.3208 23.1183 11 21.4959 11Z" fill="#5E4ED1"/>
</svg>
