<svg width="64" height="64" viewBox="0 0 64 64" fill="none" xmlns="http://www.w3.org/2000/svg">
<path d="M39.6535 24.0577C39.0158 24.0875 38.4142 24.362 37.9737 24.824C37.5332 25.2861 37.2878 25.9001 37.2885 26.5385V33.1539C37.2885 33.3732 37.2014 33.5835 37.0463 33.7386C36.8912 33.8937 36.6809 33.9808 36.4616 33.9808C34.4877 33.9808 32.5948 34.7649 31.1991 36.1606C29.8033 37.5563 29.0192 39.4493 29.0192 41.4231C29.0192 41.6424 28.9321 41.8528 28.7771 42.0078C28.622 42.1629 28.4116 42.25 28.1923 42.25C27.973 42.25 27.7627 42.1629 27.6076 42.0078C27.4525 41.8528 27.3654 41.6424 27.3654 41.4231C27.3614 40.2279 27.5947 39.0438 28.0517 37.9394C28.5088 36.8351 29.1806 35.8324 30.0281 34.9896C30.3984 34.62 30.7996 34.2824 31.2271 33.9808H19.9231V41.4231C19.9231 42.739 20.4458 44.001 21.3763 44.9314C22.3068 45.8619 23.5688 46.3846 24.8846 46.3846H37.2885C38.6044 46.3846 39.8664 45.8619 40.7968 44.9314C41.7273 44.001 42.25 42.739 42.25 41.4231V26.7287C42.2525 26.3581 42.1806 25.9907 42.0386 25.6484C41.8965 25.3061 41.6872 24.9958 41.4231 24.7358C41.1917 24.5056 40.9148 24.3264 40.61 24.2096C40.3052 24.0928 39.9794 24.0411 39.6535 24.0577Z" fill="#5E4ED1"/>
<path d="M38.9423 48.0386H23.2308C22.3174 48.0386 21.5769 48.779 21.5769 49.6924V53.0001C21.5769 53.9135 22.3174 54.654 23.2308 54.654H38.9423C39.8557 54.654 40.5961 53.9135 40.5961 53.0001V49.6924C40.5961 48.779 39.8557 48.0386 38.9423 48.0386Z" fill="#5E4ED1"/>
<path d="M35.6346 30.673H19.9231C19.7038 30.673 19.4935 30.5859 19.3384 30.4308C19.1833 30.2757 19.0962 30.0654 19.0962 29.8461C19.0962 29.1881 18.8348 28.5571 18.3696 28.0919C17.9043 27.6267 17.2734 27.3653 16.6154 27.3653C16.3961 27.3653 16.1858 27.2782 16.0307 27.1231C15.8756 26.968 15.7885 26.7577 15.7885 26.5384V18.2691C15.7885 18.0498 15.8756 17.8395 16.0307 17.6844C16.1858 17.5293 16.3961 17.4422 16.6154 17.4422H16.8883L17.1446 17.4009C17.2396 17.381 17.3334 17.3561 17.4258 17.3265L17.6408 17.2355C17.8186 17.1586 17.9855 17.0585 18.137 16.9378C18.2189 16.8806 18.2938 16.814 18.3602 16.7393C18.3981 16.7056 18.434 16.6697 18.4677 16.6318H14.1346V29.8461C14.1346 30.504 14.396 31.135 14.8612 31.6002C15.3265 32.0655 15.9575 32.3268 16.6154 32.3268H35.6346V30.673Z" fill="#5E4ED1"/>
<path d="M44.3338 26.2573C44.4508 26.1884 44.5724 26.1277 44.6977 26.0754L45.1111 25.9182C45.2573 25.8678 45.4064 25.8264 45.5577 25.7942V19.0134C45.4317 18.9881 45.3074 18.955 45.1856 18.9142L45.0036 18.8563C44.8591 18.8085 44.7182 18.7505 44.5819 18.6827C44.4579 18.6248 44.3421 18.5586 44.2263 18.4925L44.1436 18.4429C44.0361 18.3684 43.9369 18.3023 43.8377 18.2196C43.7255 18.1345 43.6204 18.0405 43.5234 17.9384C43.4572 17.8895 43.3987 17.831 43.3498 17.7648C43.2475 17.6674 43.156 17.5593 43.0769 17.4423C42.9795 17.3299 42.8936 17.208 42.8206 17.0784C42.7374 16.9383 42.6655 16.7917 42.6056 16.6402H34.8656C35.9178 17.9106 36.4835 19.514 36.4615 21.1634C36.4615 24.5869 34.2371 27.3654 31.5 27.3654C28.7629 27.3654 26.5384 24.5869 26.5384 21.1634C26.5099 19.504 27.0793 17.8897 28.1427 16.6154H20.4027C20.3365 16.7655 20.262 16.9118 20.1794 17.0536C20.1078 17.1918 20.0219 17.3221 19.9231 17.4423C19.8488 17.5605 19.7599 17.6689 19.6584 17.7648C19.6095 17.831 19.551 17.8895 19.4848 17.9384C19.3882 18.0409 19.2831 18.135 19.1706 18.2196C19.0713 18.3023 18.9721 18.3684 18.8646 18.4429L18.7819 18.4925C18.6661 18.5586 18.5504 18.6248 18.4263 18.6827C18.2894 18.749 18.1486 18.807 18.0046 18.8563L17.8227 18.9142C17.7008 18.955 17.5765 18.9881 17.4506 19.0134V25.7942C18.2436 25.9577 18.9712 26.3505 19.5431 26.9238C20.1149 27.4971 20.5058 28.2257 20.6673 29.0192H35.6346V26.5384C35.6334 25.4754 36.0416 24.4527 36.7746 23.6828C37.5076 22.9129 38.5089 22.4548 39.5708 22.4038C40.1155 22.3796 40.6594 22.4677 41.1687 22.6626C41.6779 22.8575 42.1417 23.155 42.5311 23.5367C42.8248 23.8173 43.0781 24.1373 43.2836 24.4877C43.3678 24.6228 43.4425 24.7638 43.5069 24.9094C43.5069 25.0004 43.5896 25.0996 43.6227 25.1905C43.6558 25.2815 43.6723 25.3394 43.6971 25.4138C43.7267 25.483 43.7488 25.555 43.7633 25.6288L43.8129 25.8438C43.847 25.985 43.8691 26.1289 43.879 26.2738C43.879 26.2738 43.879 26.4475 43.879 26.5302C44.0235 26.4278 44.1755 26.3365 44.3338 26.2573Z" fill="#5E4ED1"/>
<path d="M44.6398 16.7229C44.7062 16.7975 44.7811 16.8641 44.863 16.9213C45.0166 17.0391 45.183 17.1389 45.3592 17.219L45.5742 17.31C45.6666 17.3397 45.7604 17.3645 45.8553 17.3844L46.1117 17.4257L46.3846 17.4423C46.6039 17.4423 46.8142 17.5294 46.9693 17.6845C47.1244 17.8396 47.2115 18.0499 47.2115 18.2692V26.5384C47.2115 26.7577 47.1244 26.9681 46.9693 27.1232C46.8142 27.2782 46.6039 27.3654 46.3846 27.3654C45.7266 27.3654 45.0956 27.6267 44.6304 28.092C44.1652 28.5572 43.9038 29.1882 43.9038 29.8461V32.3269H46.3846C46.6027 32.3263 46.8198 32.2957 47.0296 32.2359C47.5555 32.0943 48.0201 31.7836 48.3519 31.3517C48.6837 30.9198 48.8641 30.3907 48.8653 29.8461V16.6154H44.5323C44.5639 16.6552 44.5999 16.6913 44.6398 16.7229Z" fill="#5E4ED1"/>
<path d="M50.5192 10H12.4808C11.8228 10 11.1918 10.2614 10.7266 10.7266C10.2614 11.1918 10 11.8228 10 12.4808V19.0962C10 19.7541 10.2614 20.3851 10.7266 20.8503C11.1918 21.3156 11.8228 21.5769 12.4808 21.5769V16.6154C12.2615 16.6154 12.0511 16.5283 11.896 16.3732C11.741 16.2181 11.6538 16.0078 11.6538 15.7885C11.6538 15.5691 11.741 15.3588 11.896 15.2037C12.0511 15.0487 12.2615 14.9615 12.4808 14.9615H50.5192C50.7385 14.9615 50.9489 15.0487 51.104 15.2037C51.259 15.3588 51.3462 15.5691 51.3462 15.7885C51.3462 16.0078 51.259 16.2181 51.104 16.3732C50.9489 16.5283 50.7385 16.6154 50.5192 16.6154V21.5769C51.1772 21.5769 51.8082 21.3156 52.2734 20.8503C52.7386 20.3851 53 19.7541 53 19.0962V12.4808C53 11.8228 52.7386 11.1918 52.2734 10.7266C51.8082 10.2614 51.1772 10 50.5192 10Z" fill="#5E4ED1"/>
<path d="M31.5 25.7115C33.3267 25.7115 34.8076 23.6753 34.8076 21.1634C34.8076 18.6516 33.3267 16.6154 31.5 16.6154C29.6732 16.6154 28.1923 18.6516 28.1923 21.1634C28.1923 23.6753 29.6732 25.7115 31.5 25.7115Z" fill="#5E4ED1"/>
</svg>
