<svg width="64" height="64" viewBox="0 0 64 64" fill="none" xmlns="http://www.w3.org/2000/svg">
<path fill-rule="evenodd" clip-rule="evenodd" d="M27.9501 38.3947V50.2441H19.4064V38.3947H27.9501ZM16.3361 35.129H31.0224V39.7971H29.0569V37.288H18.3006V39.7971H16.3361V35.129ZM43.2783 35.2651H47.0547V39.0259H43.2783V35.2651ZM32.4715 45.7413H36.2478V49.5011H32.4715V45.7413ZM32.4715 40.5042H36.2478V44.265H32.4715V40.5042ZM37.8749 45.7413H41.6522V49.5011H37.8749V45.7413ZM37.8749 44.264V40.5032H41.6522V44.264H37.8749ZM43.2783 45.7413H47.0547V49.5011H43.2783V45.7413ZM43.2783 44.264V40.5032H47.0547V44.264H43.2783ZM37.8749 35.2651H41.6522V39.0259H37.8749V35.2651ZM32.4715 35.2651H36.2478V39.0259H32.4715V35.2651ZM16.3361 13.7555H47.2502V32.2872H16.3361V13.7555ZM10 8V56.6269H53.5853V8H10Z" fill="#5E4ED1"/>
</svg>
