<svg width="28" height="51" viewBox="0 0 28 51" fill="none" xmlns="http://www.w3.org/2000/svg">
<path d="M21.8283 50.237H6.17166C3.26703 50.237 1 47.8992 1 45.0654V6.17166C1 3.26703 3.33788 1 6.17166 1H21.8283C24.733 1 27 3.33787 27 6.17166V45.0654C27 47.8992 24.6621 50.237 21.8283 50.237ZM25.2997 44.0736V6.88011C25.2997 4.75477 23.5286 2.98365 21.4033 2.98365H6.59673C4.47139 2.98365 2.70027 4.75477 2.70027 6.88011V44.0736C2.70027 46.1989 4.47139 47.97 6.59673 47.97H21.4033C23.5286 47.97 25.2997 46.1989 25.2997 44.0736Z" fill="#5E4ED1" stroke="#5E4ED1" stroke-miterlimit="10"/>
<path d="M13.8937 46.0575C15.0284 46.0575 15.9482 45.1376 15.9482 44.003C15.9482 42.8683 15.0284 41.9485 13.8937 41.9485C12.7591 41.9485 11.8392 42.8683 11.8392 44.003C11.8392 45.1376 12.7591 46.0575 13.8937 46.0575Z" fill="#5E4ED1" stroke="#5E4ED1" stroke-miterlimit="10"/>
<path d="M16.8693 5.25073H10.9183C10.7058 5.25073 10.5641 5.10904 10.5641 4.8965V4.82566C10.5641 4.61312 10.7058 4.47144 10.9183 4.47144H16.8693C17.0818 4.47144 17.2235 4.61312 17.2235 4.82566V4.8965C17.2235 5.10904 17.0818 5.25073 16.8693 5.25073Z" fill="#5E4ED1" stroke="#5E4ED1" stroke-width="0.5" stroke-miterlimit="10"/>
</svg>
