<svg width="64" height="64" viewBox="0 0 64 64" fill="none" xmlns="http://www.w3.org/2000/svg">
<path d="M59.1448 48.5561H4V15H59.1386L59.1448 48.5561ZM4.62233 47.9338H58.5163V15.6223H4.62233V47.9338Z" fill="#5E4ED1"/>
<path d="M20.7034 43.3721H7.73401V28.3179H20.7034V43.3721ZM8.35634 42.7497H20.0811V28.9402H8.35634V42.7497Z" fill="#5E4ED1"/>
<path d="M54.6453 28.6913H22.9811V29.3136H54.6453V28.6913Z" fill="#5E4ED1"/>
<path d="M54.6453 32.4253H22.9811V33.0476H54.6453V32.4253Z" fill="#5E4ED1"/>
<path d="M54.6453 35.537H22.9811V36.1593H54.6453V35.537Z" fill="#5E4ED1"/>
<path d="M54.6453 39.271H22.9811V39.8933H54.6453V39.271Z" fill="#5E4ED1"/>
<path d="M54.6453 42.3827H22.9811V43.005H54.6453V42.3827Z" fill="#5E4ED1"/>
<path d="M17.2495 37.0304H11.1693V43.1106H17.2495V37.0304Z" fill="#5E4ED1"/>
<path d="M14.2124 37.0244C15.5013 37.0244 16.5462 35.9796 16.5462 34.6907C16.5462 33.4018 15.5013 32.3569 14.2124 32.3569C12.9235 32.3569 11.8787 33.4018 11.8787 34.6907C11.8787 35.9796 12.9235 37.0244 14.2124 37.0244Z" fill="#5E4ED1"/>
<path d="M58.8336 19.0825H4.31738V23.2833H58.8336V19.0825Z" fill="#5E4ED1"/>
</svg>
