<svg width="64" height="64" viewBox="0 0 64 64" fill="none" xmlns="http://www.w3.org/2000/svg">
<path fill-rule="evenodd" clip-rule="evenodd" d="M51.5876 16H13.1549C11.0774 16 9 17.7312 9 20.1549V44.3917C9 46.4691 10.7312 48.5466 13.1549 48.5466H51.5876C53.665 48.5466 55.7424 46.8154 55.7424 44.3917V20.1549C55.7424 18.0774 54.0112 16 51.5876 16ZM15.2323 41.2755C15.5786 37.1207 20.7722 37.8131 21.4647 35.7357C21.4647 35.0432 21.4647 34.3507 21.4647 34.0045C21.1184 33.6583 20.0797 32.9658 20.0797 31.9271C19.3872 31.5808 19.041 30.1959 19.7334 29.5034C18.0022 22.9248 24.2346 22.2323 25.2733 24.3098C28.0432 24.3098 27.3507 28.1184 27.0045 29.5034C27.697 30.1959 27.3507 31.5808 26.6583 31.9271C26.6583 32.9658 25.6195 34.0045 25.2733 34.0045C25.2733 34.697 25.2733 35.0432 25.2733 35.7357C25.9658 37.8131 31.1594 37.1207 31.5056 41.2755H15.2323ZM48.8176 38.1594H36.6992C35.3143 38.1594 35.3143 36.0819 36.6992 36.0819H48.8176C50.2026 36.0819 50.2026 38.1594 48.8176 38.1594ZM48.8176 32.9658H36.6992C35.3143 32.9658 35.3143 30.8883 36.6992 30.8883H48.8176C50.2026 30.8883 50.2026 32.9658 48.8176 32.9658ZM48.8176 27.7722H36.6992C35.3143 27.7722 35.3143 25.6947 36.6992 25.6947H48.8176C50.2026 25.6947 50.2026 27.7722 48.8176 27.7722Z" fill="#5E4ED1"/>
</svg>
