<svg width="64" height="64" viewBox="0 0 64 64" fill="none" xmlns="http://www.w3.org/2000/svg">
<path d="M32.9799 10H37.1577V12.0889H35.0688V14.1778H30.8903V20.4458H26.7125V18.3562H28.8014V12.0889H32.9799V10Z" fill="#5E4ED1"/>
<path d="M10 10V24.6236H24.6236V10H10ZM22.534 22.534H12.0889V12.0889H22.534V22.534Z" fill="#5E4ED1"/>
<path d="M39.2472 10V24.6236H53.8701V10H39.2472ZM51.7805 22.534H41.3361V12.0889H51.7812L51.7805 22.534Z" fill="#5E4ED1"/>
<path d="M20.4451 14.1777H14.1777V20.4451H20.4451V14.1777Z" fill="#5E4ED1"/>
<path d="M49.6917 14.1777H43.4243V20.4451H49.6917V14.1777Z" fill="#5E4ED1"/>
<path d="M35.0688 16.2675H32.9799V18.3563H35.0688V16.2675Z" fill="#5E4ED1"/>
<path d="M35.0687 18.3562H37.1576V26.7124H35.0687V22.534H32.9798V24.6236H30.8903V20.4458H35.0687V18.3562Z" fill="#5E4ED1"/>
<path d="M26.7125 22.5341H28.8014V24.6236H30.8903V26.7125H28.8014V30.8903H30.8903V28.8014H32.9799V26.7125H35.0688V32.9799H30.8903V35.0688H28.8014V32.9799H26.7125V28.8014H22.5341V26.7125H26.7125V22.5341Z" fill="#5E4ED1"/>
<path d="M18.3555 26.7125H14.1777V28.8021H18.3555V26.7125Z" fill="#5E4ED1"/>
<path d="M37.1576 26.7125H41.3361V28.8014H39.2472V30.8903H37.1576V26.7125Z" fill="#5E4ED1"/>
<path d="M45.5139 26.7125H43.4243V28.8021H45.5139V26.7125Z" fill="#5E4ED1"/>
<path d="M10 28.8014H14.1778V30.8903H16.2674V32.9799H14.1778V35.0687H12.0889V30.8903H10V28.8014Z" fill="#5E4ED1"/>
<path d="M18.3562 28.8014H22.534V30.8903H20.4451V32.9799H22.534V35.0687H18.3562V28.8014Z" fill="#5E4ED1"/>
<path d="M45.5138 28.8014H47.6034V30.8903H49.6923V37.1576H47.6034V35.0687H43.4243V37.1576H41.3361V32.9799H45.5138V28.8014Z" fill="#5E4ED1"/>
<path d="M24.623 30.8904H22.5341V32.9799H24.623V30.8904Z" fill="#5E4ED1"/>
<path d="M53.8701 30.8904H51.7805V32.9799H53.8701V30.8904Z" fill="#5E4ED1"/>
<path d="M24.6236 32.9799H26.7125V37.1576H22.5341V35.0688H24.6236V32.9799Z" fill="#5E4ED1"/>
<path d="M37.1583 32.9799H35.0687V35.0688H37.1583V32.9799Z" fill="#5E4ED1"/>
<path d="M12.0889 35.0687H10V37.1583H12.0889V35.0687Z" fill="#5E4ED1"/>
<path d="M16.2666 35.0687H14.1777V37.1583H16.2666V35.0687Z" fill="#5E4ED1"/>
<path d="M30.8903 35.0687H35.0688V37.1576H32.9799V41.3361H30.8903V45.5139H28.8014V41.3361H26.7125V37.1576H28.8014V39.2465H30.8903V35.0687Z" fill="#5E4ED1"/>
<path d="M39.2472 35.0687H37.1576V37.1583H39.2472V35.0687Z" fill="#5E4ED1"/>
<path d="M53.8701 35.0687H51.7805V37.1583H53.8701V35.0687Z" fill="#5E4ED1"/>
<path d="M37.1583 37.1576H35.0687V41.3354H37.1583V37.1576Z" fill="#5E4ED1"/>
<path d="M47.6035 37.1576H45.5139V41.3354H47.6035V37.1576Z" fill="#5E4ED1"/>
<path d="M51.7812 37.1576H49.6923V39.2465H51.7812V37.1576Z" fill="#5E4ED1"/>
<path d="M41.3361 39.2465H43.4243V41.336H45.5139V45.5138H51.7806V47.6027H43.4243V51.7805H41.3361V47.6027H39.2472V49.6923H37.1576V51.7805H39.2472V53.8701H28.8014V51.7805H35.0687V47.6027H37.1576V41.336H41.3361V39.2465Z" fill="#5E4ED1"/>
<path d="M10 39.2465V53.8701H24.6236V39.2465H10ZM22.534 51.7805H12.0889V41.336H22.534V51.7805Z" fill="#5E4ED1"/>
<path d="M35.0688 41.3361H32.9799V43.4249H35.0688V41.3361Z" fill="#5E4ED1"/>
<path d="M51.7805 41.3361H47.6034V43.4249H51.7805V41.3361Z" fill="#5E4ED1"/>
<path d="M20.4451 43.4242H14.1777V49.6915H20.4451V43.4242Z" fill="#5E4ED1"/>
<path d="M53.8701 43.4242H51.7805V45.5138H53.8701V43.4242Z" fill="#5E4ED1"/>
<path d="M26.7125 45.5139H28.8014V47.6028H30.8903V49.6924H26.7125V45.5139Z" fill="#5E4ED1"/>
<path d="M35.068 45.5139H30.8903V47.6028H35.068V45.5139Z" fill="#5E4ED1"/>
<path d="M49.6923 49.6924H47.6034V51.7813H49.6923V49.6924Z" fill="#5E4ED1"/>
<path d="M53.8701 49.6924H51.7805V51.7813H53.8701V49.6924Z" fill="#5E4ED1"/>
<path d="M45.5139 51.7805H43.4243V53.8701H45.5139V51.7805Z" fill="#5E4ED1"/>
</svg>
