<svg width="64" height="64" viewBox="0 0 64 64" fill="none" xmlns="http://www.w3.org/2000/svg">
<path fill-rule="evenodd" clip-rule="evenodd" d="M35.8744 29.7137C35.8719 29.6338 35.8855 29.5543 35.9143 29.4797C35.9432 29.4052 35.9867 29.3372 36.0423 29.2799C36.0979 29.2225 36.1645 29.1769 36.2381 29.1457C36.3117 29.1145 36.3908 29.0985 36.4707 29.0985C36.5506 29.0985 36.6297 29.1145 36.7033 29.1457C36.7769 29.1769 36.8435 29.2225 36.8991 29.2799C36.9548 29.3372 36.9983 29.4052 37.0271 29.4797C37.056 29.5543 37.0696 29.6338 37.0671 29.7137C37.0713 29.8689 37.1093 30.0213 37.1787 30.1602C37.248 30.2992 37.3468 30.4213 37.4683 30.5179C37.7805 30.7636 38.1663 30.8972 38.5636 30.8972C38.9609 30.8972 39.3466 30.7636 39.6589 30.5179C39.7804 30.4213 39.8792 30.2992 39.9485 30.1602C40.0178 30.0213 40.0559 29.8689 40.0601 29.7137C40.0601 28.826 39.2484 28.659 38.4366 28.4926C37.154 28.2288 35.8744 27.9655 35.8744 26.1304C35.8782 25.8023 35.9541 25.479 36.0967 25.1834C36.2393 24.8878 36.4451 24.6272 36.6995 24.4199C37.064 24.1143 37.5001 23.9062 37.967 23.8152V22.9866C37.967 22.8284 38.0298 22.6766 38.1417 22.5647C38.2536 22.4528 38.4054 22.3899 38.5636 22.3899C38.7218 22.3899 38.8736 22.4528 38.9855 22.5647C39.0974 22.6766 39.1602 22.8284 39.1602 22.9866V23.8134C39.6267 23.9051 40.0623 24.1133 40.4266 24.4188C40.6812 24.6264 40.887 24.8874 41.0296 25.1834C41.1722 25.4794 41.248 25.8031 41.2517 26.1316C41.2468 26.2865 41.1819 26.4335 41.0706 26.5414C40.9593 26.6493 40.8103 26.7096 40.6553 26.7096C40.5003 26.7096 40.3514 26.6493 40.2401 26.5414C40.1287 26.4335 40.0638 26.2865 40.059 26.1316C40.0549 25.9763 40.0168 25.8239 39.9475 25.685C39.8782 25.546 39.7793 25.424 39.6577 25.3273C39.3452 25.0824 38.9595 24.9492 38.5624 24.9492C38.1653 24.9492 37.7797 25.0824 37.4671 25.3273C37.3458 25.4244 37.2471 25.5469 37.178 25.6861C37.1089 25.8253 37.071 25.9779 37.0671 26.1333C37.0671 27.0001 37.8695 27.1654 38.6743 27.3306C39.9621 27.595 41.2528 27.8606 41.2528 29.7166C41.249 30.0451 41.1732 30.3687 41.0306 30.6647C40.888 30.9606 40.6822 31.2217 40.4277 31.4294C40.0632 31.735 39.6271 31.9431 39.1602 32.0342V32.8604C39.1602 33.0187 39.0974 33.1704 38.9855 33.2823C38.8736 33.3942 38.7218 33.4571 38.5636 33.4571C38.4054 33.4571 38.2536 33.3942 38.1417 33.2823C38.0298 33.1704 37.967 33.0187 37.967 32.8604V32.0313C37.5001 31.9402 37.064 31.7321 36.6995 31.4265C36.445 31.2188 36.2392 30.9578 36.0966 30.6618C35.954 30.3658 35.8782 30.0422 35.8744 29.7137ZM16.4439 44.2175L20.0794 50.3149C22.9785 47.8675 24.544 48.3852 27.5591 49.3802C29.0715 49.9064 30.6183 50.3282 32.1884 50.6425L32.2261 50.6506C32.7568 50.784 33.7619 50.6924 35.2412 50.3758C37.3027 49.8989 39.3382 49.3154 41.3392 48.6276C41.3595 48.6212 41.3792 48.616 41.3972 48.6114C42.7743 48.2003 43.4805 47.697 43.6997 47.2557C43.7377 47.1925 43.7542 47.1187 43.7467 47.0453C43.7314 46.9927 43.6986 46.9469 43.6539 46.9154C43.4358 46.7914 43.1941 46.7144 42.9444 46.6895C42.6948 46.6645 42.4427 46.6921 42.2043 46.7704L42.1643 46.778C41.4221 46.9148 40.7965 47.0592 40.2213 47.192C38.7208 47.5849 37.1756 47.7817 35.6245 47.7776C35.5724 47.7776 35.5205 47.772 35.4697 47.7608C35.1133 47.6804 34.407 47.4678 33.351 47.123C32.2702 46.7747 30.8672 46.3044 29.142 45.7122C28.9744 45.6479 28.8381 45.5212 28.7617 45.3586C28.6854 45.1961 28.6748 45.0103 28.7322 44.8402C28.7897 44.67 28.9107 44.5287 29.0699 44.4457C29.2292 44.3627 29.4144 44.3445 29.5867 44.3949C30.3771 44.5812 31.1933 44.6318 32.0006 44.5445C33.0395 44.4495 34.0644 44.2383 35.0562 43.9148C35.3142 43.7984 35.5452 43.6299 35.7348 43.4198C35.9244 43.2097 36.0684 42.9627 36.1579 42.6943C36.1872 42.5549 36.1769 42.4101 36.1283 42.2762C36.0822 42.1547 36.0045 42.0476 35.9034 41.966C35.7935 41.88 35.665 41.8207 35.5283 41.7929C35.3915 41.7652 35.2501 41.7696 35.1154 41.806C35.0864 41.813 35.0569 41.818 35.0272 41.821C34.7878 41.8518 34.3894 41.9086 33.9783 41.9677C31.3761 42.4586 28.7048 42.4568 26.1032 41.9625C26.0336 41.948 25.9666 41.9232 25.9043 41.8889C24.6184 41.2146 23.119 41.0728 21.7295 41.494C20.2568 41.8999 18.5701 42.8131 16.4479 44.2192L16.4439 44.2175ZM15.5202 55.6864L9.54799 45.6705C9.45411 45.5124 9.4266 45.3237 9.47147 45.1454C9.51634 44.9671 9.62994 44.8138 9.78746 44.719L14.3217 42.0159C14.4797 41.9219 14.6684 41.8943 14.8467 41.9391C15.025 41.9839 15.1783 42.0973 15.2732 42.2548L15.7307 43.0219C17.9421 41.563 19.7315 40.6034 21.3602 40.157C23.0567 39.6425 24.8868 39.8089 26.4627 40.6208C28.8831 41.0599 31.3636 41.0502 33.7806 40.5924C34.092 40.5478 34.3941 40.5043 34.8313 40.4492C35.1685 40.3686 35.5198 40.3664 35.858 40.4428C36.1963 40.5192 36.5125 40.6721 36.7824 40.8899C37.0837 41.1349 37.3116 41.4584 37.4409 41.8246C37.5702 42.1909 37.5959 42.5857 37.5153 42.9656C37.389 43.4364 37.1625 43.8743 36.8512 44.2493C36.54 44.6244 36.1514 44.9278 35.712 45.1388C35.662 45.1705 35.6083 45.1958 35.552 45.2142C34.8973 45.4291 34.2295 45.6019 33.5527 45.7314L33.7771 45.8044C34.73 46.1137 35.3707 46.3091 35.6993 46.3907C37.12 46.3854 38.5343 46.1997 39.9082 45.8381C40.4822 45.7059 41.1073 45.5621 41.9104 45.4136H41.919C42.3599 45.2885 42.8229 45.2623 43.275 45.3371C43.7271 45.4119 44.157 45.5857 44.5341 45.8462C44.8254 46.0789 45.0272 46.4053 45.1052 46.7699C45.1781 47.1447 45.1213 47.5333 44.944 47.8715C44.5735 48.6166 43.5872 49.4063 41.7932 49.9427L41.7718 49.9502C39.7225 50.6532 37.6381 51.2493 35.5271 51.7361C33.8506 52.0955 32.643 52.1847 31.9043 52.0034C30.283 51.6799 28.6858 51.2451 27.1242 50.7022C24.5591 49.8551 23.2435 49.4208 20.8041 51.5279L21.2477 52.2718C21.3416 52.4298 21.3692 52.6185 21.3245 52.7968C21.2797 52.9751 21.1662 53.1284 21.0088 53.2233L16.474 55.9265C16.3959 55.9733 16.3093 56.0043 16.2192 56.0177C16.1292 56.0311 16.0373 56.0265 15.949 56.0043C15.8606 55.9822 15.7775 55.9427 15.7045 55.8884C15.6314 55.834 15.5697 55.7658 15.5231 55.6876L15.5202 55.6864ZM11.0944 45.5551L14.4377 43.5617L14.8308 44.2221C14.8642 44.3269 14.9214 44.4225 14.9978 44.5016L19.6984 52.3872L16.3551 54.3789L11.0944 45.5551ZM17.4342 52.3541L17.5113 52.2788C17.5849 52.2174 17.6449 52.1414 17.6878 52.0557C17.7306 51.9699 17.7552 51.8763 17.7602 51.7806C17.7651 51.6849 17.7502 51.5892 17.7165 51.4995C17.6827 51.4099 17.6308 51.3281 17.564 51.2595C17.4971 51.1908 17.4168 51.1367 17.3281 51.1005C17.2394 51.0643 17.1441 51.0468 17.0483 51.0491C16.9525 51.0515 16.8583 51.0736 16.7714 51.1141C16.6845 51.1545 16.607 51.2125 16.5436 51.2844L16.4665 51.3592C16.3933 51.4207 16.3337 51.4967 16.2912 51.5823C16.2487 51.6679 16.2243 51.7614 16.2195 51.8569C16.2148 51.9523 16.2297 52.0478 16.2635 52.1372C16.2972 52.2266 16.349 52.3081 16.4157 52.3767C16.4823 52.4452 16.5624 52.4992 16.6508 52.5355C16.7393 52.5717 16.8343 52.5893 16.9298 52.5872C17.0254 52.585 17.1195 52.5633 17.2063 52.5232C17.2931 52.4831 17.3706 52.4255 17.4342 52.3541ZM43.0323 11.1616C43.0387 11.1483 43.0456 11.1355 43.0532 11.1228L43.6661 9.9643L41.9422 9.71092L41.2024 12.5381C41.1622 12.6908 41.0631 12.8212 40.9268 12.9007C40.7905 12.9803 40.6282 13.0024 40.4756 12.9623C40.3229 12.9221 40.1925 12.823 40.113 12.6867C40.0334 12.5504 40.0113 12.3881 40.0514 12.2355L41.3613 7.23912L36.4211 7.55281L37.1575 9.40071C37.1616 9.40999 37.1656 9.41926 37.1691 9.42854L38.1374 11.9954C38.1921 12.1428 38.1862 12.3059 38.121 12.4489C38.0558 12.592 37.9366 12.7034 37.7895 12.7589C37.6424 12.8144 37.4794 12.8094 37.3359 12.745C37.1925 12.6806 37.0804 12.562 37.0242 12.4152L36.3284 10.5749L34.9258 11.5878L35.8378 14.5246H41.2482L43.0323 11.1616ZM38.6042 15.7196L41.6245 16.9036C41.7313 16.872 41.8275 16.8119 41.9028 16.7297C41.9814 16.6432 42.0331 16.5357 42.0519 16.4204C42.0707 16.3051 42.0557 16.1867 42.0086 16.0798C41.9616 15.9728 41.8845 15.8817 41.7868 15.8176C41.6891 15.7535 41.5749 15.7191 41.4581 15.7185L38.6042 15.7196ZM35.3821 16.8677C35.4074 16.7689 35.4395 16.6721 35.4783 16.5778C35.5871 16.3125 35.7494 16.0725 35.955 15.8727C36.0117 15.8186 36.0713 15.7677 36.1336 15.7202H35.6697C35.51 15.7213 35.3571 15.7852 35.2443 15.8982C35.1314 16.0112 35.0676 16.1641 35.0667 16.3238C35.0549 16.4928 35.0911 16.6616 35.171 16.8109C35.1968 16.848 35.2329 16.8769 35.2748 16.8938L35.3821 16.8677ZM46.4452 22.9054C43.5942 23.0904 42.9981 22.7031 41.0168 21.4135C40.8214 21.2865 40.611 21.1474 40.2167 20.8986L36.5516 19.2415C36.2956 19.1346 36.0642 18.9762 35.872 18.7761C35.6798 18.576 35.5308 18.3385 35.4343 18.0784C34.1365 18.3991 32.9526 19.0724 32.0133 20.0237C31.0607 20.9766 30.5195 22.2649 30.5058 23.6122C30.5058 23.9943 30.5116 24.3242 30.5214 24.6176C30.5319 24.9319 30.5481 25.2641 30.5667 25.6033C30.5852 25.9425 30.6101 26.3374 30.6345 26.7207C30.8612 30.2715 31.0601 33.3974 28.3888 36.4484C28.2874 36.5488 28.2193 36.678 28.1938 36.8185C28.1683 36.9589 28.1866 37.1038 28.2462 37.2335C28.3291 37.4022 28.4466 37.5516 28.5912 37.6718C28.7637 37.8193 28.9597 37.9369 29.171 38.0197C29.4275 38.1418 29.7136 38.1879 29.9955 38.1524C30.2774 38.117 30.5432 38.0015 30.7615 37.8197C31.0752 37.5196 31.4385 37.2762 31.8353 37.1001C32.2082 36.937 32.6027 36.8284 33.0066 36.7777C34.0559 36.6934 35.112 36.7577 36.1434 36.9685C36.9225 37.1081 37.7109 37.1893 38.5021 37.2114C39.2933 37.1894 40.0818 37.1082 40.8609 36.9685C42.8392 36.6658 44.7242 36.3777 46.2405 37.8203C46.4589 38.0021 46.7248 38.1175 47.0067 38.153C47.2887 38.1884 47.5749 38.1424 47.8315 38.0203C48.0429 37.9376 48.2389 37.82 48.4113 37.6724C48.5567 37.5525 48.6753 37.4033 48.7592 37.2346C48.8189 37.1048 48.8372 36.9598 48.8116 36.8192C48.7859 36.6786 48.7177 36.5494 48.616 36.449C45.9453 33.3979 46.1442 30.2727 46.3704 26.7218C46.4336 25.7286 46.4991 24.7006 46.4991 23.6122C46.4994 23.411 46.487 23.21 46.462 23.0104C46.4573 22.9756 46.4527 22.9408 46.4475 22.906L46.4452 22.9054ZM50.5955 23.6366V23.6406L50.5857 23.6644L50.2308 24.5701L53.359 25.7964L56.8379 16.9199L53.7098 15.6935L53.308 16.7181V16.721L50.5955 23.6366ZM42.22 17.9485C42.1418 18.0522 42.0318 18.1275 41.9068 18.1629C41.7818 18.1982 41.6486 18.1918 41.5277 18.1445L37.615 16.6108C37.4801 16.5448 37.3286 16.5205 37.1798 16.5412C37.031 16.5619 36.8918 16.6265 36.7801 16.7268C36.6926 16.8116 36.6239 16.9137 36.5783 17.0266C36.5291 17.1439 36.5043 17.2699 36.5052 17.3971C36.5099 17.5616 36.5633 17.7211 36.6586 17.8553C36.754 17.9895 36.8871 18.0924 37.041 18.1508L40.7484 19.8277C40.7741 19.8391 40.7989 19.8524 40.8226 19.8677C41.0279 19.9982 41.3601 20.2156 41.6639 20.4122C43.4898 21.6008 43.9629 21.9087 46.8783 21.675C46.9805 21.6691 47.0826 21.6897 47.1746 21.7347L49.6951 22.6741L51.9813 16.841L49.5982 15.9005C49.5527 15.8829 49.5095 15.8597 49.4695 15.8315L45.3261 12.8634C45.0702 12.6874 44.7984 12.5356 44.5143 12.41C44.312 12.3172 44.0916 12.2279 43.8586 12.1433L42.4409 14.8174C42.7086 14.9926 42.9247 15.236 43.0669 15.5225C43.2091 15.809 43.2723 16.1283 43.2499 16.4475C43.2275 16.7666 43.1204 17.0739 42.9395 17.3378C42.7587 17.6016 42.5107 17.8125 42.2211 17.9485H42.22ZM32.552 18.0534C32.0446 18.38 31.5767 18.764 31.1575 19.198C29.99 20.3717 29.3289 21.9562 29.316 23.6116C29.316 23.9201 29.3235 24.2732 29.3363 24.6553C29.3484 25.0148 29.3641 25.3511 29.3815 25.6671C29.4041 26.0788 29.4267 26.4383 29.4493 26.7937C29.6592 30.0854 29.8436 32.9834 27.4971 35.665C27.2364 35.9339 27.065 36.2765 27.0061 36.6463C26.9473 37.0161 27.0039 37.3951 27.1683 37.7315C27.3222 38.054 27.543 38.34 27.816 38.5705C28.0919 38.8065 28.4055 38.9944 28.7437 39.1266C29.2103 39.3346 29.7271 39.4031 30.2318 39.3238C30.7365 39.2444 31.2074 39.0207 31.5877 38.6796C31.8025 38.4729 32.0514 38.3049 32.3235 38.1832C32.591 38.066 32.8739 37.9878 33.1637 37.9513C34.1035 37.8884 35.0474 37.9526 35.97 38.1421C36.8075 38.292 37.6551 38.3781 38.5056 38.3995C39.3563 38.3781 40.2041 38.292 41.0418 38.1421C42.7267 37.8846 44.3329 37.6388 45.4241 38.6772C45.8034 39.0188 46.2734 39.2433 46.7775 39.3235C47.2815 39.4038 47.798 39.3364 48.2646 39.1295C48.6019 38.9975 48.9145 38.8097 49.1895 38.574C49.4625 38.3434 49.6834 38.0574 49.8377 37.735C50.0021 37.3985 50.0587 37.0195 49.9997 36.6497C49.9408 36.2799 49.7692 35.9372 49.5084 35.6685C47.1618 32.988 47.3468 30.0906 47.5567 26.7972C47.6222 25.7686 47.69 24.7029 47.69 23.6134C47.69 23.4707 47.685 23.3291 47.675 23.1884L49.2631 23.7798L49.0712 24.2697C49.0571 24.2994 49.0457 24.3303 49.037 24.3619C48.9614 24.5969 48.9742 24.8514 49.073 25.0776C49.1717 25.3038 49.3496 25.4862 49.5733 25.5906C49.6029 25.6059 49.6338 25.6187 49.6655 25.6289L53.094 26.9723C53.3435 27.0691 53.6212 27.0633 53.8664 26.9561C54.1116 26.8488 54.3044 26.6489 54.4027 26.4L58.0138 17.1878C58.1105 16.9381 58.1045 16.6604 57.9972 16.4151C57.8899 16.1698 57.6899 15.9769 57.441 15.8785L53.9765 14.5206C53.7271 14.4239 53.4496 14.4298 53.2045 14.5371C52.9594 14.6443 52.7667 14.8441 52.6684 15.0929L52.4179 15.7307L50.0986 14.8169L46.0149 11.8974C45.6974 11.6775 45.3598 11.4881 45.0066 11.3315C44.8193 11.2463 44.6222 11.164 44.4192 11.0863L45.0982 9.80485C45.1383 9.73785 45.1647 9.66354 45.1759 9.58625C45.1986 9.42995 45.1584 9.27103 45.064 9.14437C44.9697 9.01772 44.8289 8.9337 44.6726 8.91076L42.2461 8.55416L42.7157 6.76656C42.7359 6.69892 42.7441 6.62829 42.7401 6.55783C42.7352 6.4798 42.715 6.40351 42.6806 6.3333C42.6462 6.26308 42.5984 6.20034 42.5397 6.14864C42.4811 6.09695 42.4128 6.05732 42.3389 6.03202C42.2649 6.00672 42.1867 5.99624 42.1086 6.00119L35.5276 6.41925C35.4652 6.42286 35.4037 6.43657 35.3456 6.45984C35.1991 6.51794 35.0818 6.63181 35.0192 6.77641C34.9567 6.92101 34.9542 7.08452 35.0122 7.231L35.8883 9.42854L33.9047 10.8595C33.7968 10.9302 33.7148 11.034 33.671 11.1553C33.6272 11.2766 33.624 11.4088 33.6618 11.5321L34.1476 13.0977L31.426 13.7842C31.017 13.8671 30.6425 14.0715 30.3514 14.3705C30.0604 14.6695 29.8662 15.0494 29.7943 15.4605C29.7395 15.7682 29.7482 16.0839 29.8198 16.3882C29.8919 16.6926 30.024 16.9796 30.2083 17.2324C30.4598 17.5825 30.8104 17.8493 31.2148 17.9985C31.6193 18.1478 32.0591 18.1725 32.4778 18.0697L32.5508 18.0546L32.552 18.0534ZM34.5025 14.237L34.684 14.8227C34.5819 14.8902 34.4869 14.9679 34.4005 15.0546C34.2333 15.221 34.1006 15.4188 34.0101 15.6366C33.9195 15.8544 33.8729 16.0879 33.8728 16.3238C33.8728 16.4062 33.8763 16.4873 33.8838 16.5673L32.2412 16.9042C32.0458 16.9564 31.8393 16.9488 31.6482 16.8826C31.4571 16.8164 31.2903 16.6944 31.1691 16.5326C31.0798 16.4079 31.0159 16.2668 30.9812 16.1174C30.9456 15.9714 30.9401 15.8197 30.965 15.6715C31.0022 15.4879 31.0941 15.3198 31.2286 15.1894C31.3632 15.059 31.534 14.9723 31.7188 14.9409L34.5048 14.2376L34.5025 14.237ZM13.0269 21.6768C13.6825 21.0043 14.5509 20.58 15.4842 20.4761C16.4176 20.3722 17.3581 20.5951 18.1454 21.107C18.9328 21.6188 19.5183 22.3878 19.8022 23.283C20.0861 24.1782 20.0508 25.1441 19.7022 26.0161C19.3537 26.8882 18.7136 27.6124 17.891 28.0654C17.0683 28.5183 16.1141 28.672 15.1908 28.5002C14.2676 28.3284 13.4324 27.8418 12.8278 27.1232C12.2231 26.4047 11.8863 25.4987 11.8748 24.5597C11.8676 24.0269 11.9657 23.498 12.1634 23.0033C12.3611 22.5086 12.6546 22.0578 13.0269 21.6768ZM15.8965 21.6402C15.2319 21.6479 14.5905 21.8858 14.0817 22.3134C13.5728 22.741 13.228 23.3318 13.106 23.9852C12.984 24.6385 13.0923 25.314 13.4125 25.8964C13.7328 26.4788 14.245 26.9322 14.8621 27.1792C15.4791 27.4262 16.1627 27.4516 16.7964 27.2511C17.43 27.0505 17.9746 26.6364 18.3371 26.0794C18.6997 25.5223 18.8578 24.8568 18.7846 24.1962C18.7114 23.5356 18.4114 22.9208 17.9357 22.4566C17.6664 22.1929 17.3475 21.9851 16.9976 21.845C16.6476 21.7049 16.2734 21.6353 15.8965 21.6402ZM18.6037 18.0053C18.3884 17.9169 18.1687 17.8395 17.9456 17.7734C17.8348 17.7479 17.7336 17.6913 17.6539 17.6103C17.5742 17.5292 17.5193 17.4271 17.4957 17.3159L17.1628 15.7724L14.6157 15.8037L14.3339 17.2863C14.3184 17.3996 14.2706 17.5061 14.1961 17.5929C14.1216 17.6797 14.0237 17.7432 13.9141 17.7757C13.6792 17.8462 13.4481 17.9289 13.2218 18.0233C13.0014 18.1153 12.791 18.2156 12.5903 18.3242C12.4946 18.3841 12.3838 18.4155 12.2708 18.4148C12.1579 18.4141 12.0475 18.3812 11.9525 18.3202L10.6224 17.462L8.84467 19.2838L9.70513 20.5467C9.76921 20.6371 9.80676 20.7437 9.81352 20.8543C9.82028 20.965 9.79599 21.0753 9.74339 21.1729C9.62674 21.3887 9.52146 21.6105 9.42797 21.8374C9.33773 22.0564 9.25896 22.2799 9.19198 22.5071C9.16478 22.6154 9.10777 22.7139 9.02742 22.7915C8.94708 22.8691 8.84661 22.9226 8.7374 22.946L7.1939 23.2788L7.22463 25.826L8.70725 26.1072C8.82063 26.1229 8.92712 26.1709 9.01399 26.2454C9.10086 26.3199 9.16446 26.4179 9.1972 26.5276C9.26728 26.7624 9.34973 26.9933 9.4442 27.2193C9.53659 27.4396 9.6369 27.6501 9.74513 27.8507C9.80501 27.9465 9.83642 28.0573 9.8357 28.1702C9.83498 28.2832 9.80216 28.3936 9.74107 28.4886L8.88293 29.8187L10.7065 31.5976L11.9693 30.7377C12.0598 30.6736 12.1663 30.6361 12.277 30.6293C12.3876 30.6225 12.498 30.6468 12.5956 30.6994C13.0164 30.9271 13.4596 31.1109 13.9181 31.2479C14.029 31.2733 14.1303 31.3298 14.21 31.4109C14.2897 31.492 14.3446 31.5942 14.3681 31.7054L14.7015 33.2489L17.2486 33.217L17.5299 31.735C17.5453 31.6212 17.5933 31.5143 17.6681 31.4272C17.7429 31.34 17.8413 31.2764 17.9514 31.2439C18.1861 31.1735 18.417 31.0911 18.6431 30.9969C18.8635 30.9049 19.0739 30.8046 19.2746 30.6959C19.3703 30.6361 19.4811 30.6047 19.5941 30.6054C19.707 30.6061 19.8174 30.6389 19.9124 30.7L21.2425 31.5581L23.0196 29.7363L22.1598 28.4735C22.0956 28.3831 22.0579 28.2766 22.0511 28.1659C22.0442 28.0553 22.0684 27.9449 22.1209 27.8473C22.3491 27.4265 22.5331 26.9833 22.67 26.5247C22.6954 26.4138 22.7519 26.3125 22.833 26.2326C22.914 26.1528 23.0162 26.0978 23.1275 26.0742L24.671 25.7413L24.6391 23.1942L23.1571 22.913C23.0437 22.8973 22.9372 22.8493 22.8503 22.7748C22.7635 22.7002 22.6999 22.6023 22.6671 22.4926C22.5293 22.0342 22.3456 21.5909 22.1186 21.1694C22.0588 21.0736 22.0275 20.9628 22.0283 20.8498C22.0291 20.7369 22.0621 20.6265 22.1232 20.5316L22.9814 19.2015L21.1578 17.422L19.895 18.2819C19.8044 18.346 19.6978 18.3835 19.587 18.3903C19.4763 18.397 19.3659 18.3727 19.2682 18.3202C19.0525 18.2033 18.8306 18.0986 18.6037 18.0053ZM18.5875 16.7297L18.2251 15.0482C18.1964 14.9138 18.1222 14.7935 18.0149 14.7077C17.9076 14.6219 17.7739 14.5758 17.6366 14.5774L14.1466 14.6209C14.0038 14.6152 13.8638 14.661 13.752 14.75C13.6403 14.839 13.5642 14.9652 13.5378 15.1056L13.2264 16.7465C13.0716 16.801 12.9179 16.8625 12.7666 16.9205C12.6153 16.9784 12.4616 17.0538 12.3091 17.1292L10.8596 16.1945C10.744 16.1206 10.6065 16.0888 10.4702 16.1045C10.3339 16.1202 10.2072 16.1826 10.1116 16.2809L7.66936 18.7852C7.56692 18.8825 7.50244 19.0132 7.48747 19.1537C7.47249 19.2942 7.50798 19.4355 7.5876 19.5523L8.52924 20.9346C8.4585 21.0815 8.39086 21.2322 8.3263 21.3869C8.26175 21.5415 8.20377 21.6976 8.15235 21.8554L6.47086 22.2177C6.33645 22.2463 6.21608 22.3205 6.13023 22.4278C6.04439 22.5351 5.99839 22.6689 6.00004 22.8063L6.04353 26.2962C6.03788 26.4391 6.0838 26.5792 6.17291 26.6909C6.26201 26.8027 6.38835 26.8787 6.52884 26.905L8.17033 27.2164C8.22406 27.371 8.28204 27.5243 8.34428 27.6762C8.40651 27.8281 8.47609 27.9804 8.55301 28.1331L7.61834 29.5827C7.5443 29.6982 7.5124 29.8357 7.52804 29.9719C7.54367 30.1082 7.60588 30.2349 7.70415 30.3307L10.2078 32.7723C10.3051 32.8748 10.4358 32.9394 10.5763 32.9544C10.7169 32.9694 10.8582 32.9338 10.9749 32.8541L12.3572 31.913C12.5039 31.9837 12.6547 32.051 12.8083 32.1142C12.962 32.1774 13.118 32.236 13.2763 32.2881L13.6392 33.9696C13.6678 34.104 13.7419 34.2242 13.8491 34.3101C13.9563 34.3959 14.0899 34.442 14.2272 34.4405L17.7171 34.397C17.8604 34.4031 18.001 34.3574 18.1132 34.2681C18.2254 34.1788 18.3016 34.052 18.3277 33.9111L18.6391 32.2702C18.7939 32.2162 18.9475 32.1577 19.0989 32.0962C19.2502 32.0348 19.4039 31.9629 19.5564 31.8881L21.0059 32.8227C21.1214 32.8967 21.2588 32.9284 21.395 32.9127C21.5312 32.897 21.6578 32.8347 21.7533 32.7363L24.1955 30.2332C24.2981 30.1359 24.3626 30.0053 24.3776 29.8647C24.3926 29.7242 24.357 29.5829 24.2773 29.4661L23.3357 28.0838C23.4064 27.9366 23.4735 27.7862 23.5369 27.6327C23.5995 27.4791 23.6586 27.3231 23.7108 27.1648L25.3923 26.8018C25.5266 26.7731 25.6469 26.6988 25.7327 26.5915C25.8185 26.4843 25.8645 26.3507 25.8631 26.2133L25.8219 22.7204C25.8275 22.5776 25.7815 22.4376 25.6924 22.3259C25.6033 22.2141 25.4771 22.1381 25.3366 22.1116L23.6957 21.8003C23.6418 21.6455 23.5798 21.4924 23.5218 21.341C23.4638 21.1897 23.3884 21.0361 23.3136 20.8836L24.2483 19.434C24.3224 19.3186 24.3544 19.181 24.3388 19.0447C24.3231 18.9084 24.2608 18.7817 24.1625 18.686L21.6588 16.2444C21.5615 16.1418 21.4309 16.0773 21.2903 16.0623C21.1497 16.0473 21.0084 16.0829 20.8917 16.1626L19.5094 17.1037C19.3625 17.0329 19.2123 16.9659 19.0589 16.9025C18.9023 16.8416 18.7458 16.783 18.5892 16.7291L18.5875 16.7297Z" fill="#5E4ED1"/>
<path d="M16.6753 44.0066C16.7903 44.639 17.2606 45.1728 17.6855 45.618C17.7829 45.72 17.8716 45.8413 17.9812 45.9309C18.0972 46.0259 18.1105 46.1778 18.1832 46.3128C18.3983 46.7123 18.5356 47.1248 18.7943 47.5004C18.9887 47.7829 19.2186 48.0529 19.393 48.348C19.4637 48.4677 19.61 48.6954 19.77 48.7077C19.9887 48.7246 20.2094 48.8822 20.3786 48.619C20.4789 48.4629 20.6225 48.4861 20.6225 48.2642M19.6468 44.8934C19.3828 44.867 19.3676 44.526 19.41 44.3027M19.41 44.3027C19.417 44.2658 19.4256 44.2321 19.4349 44.2035C19.4977 44.0108 19.6688 43.8605 19.8421 43.7529M19.41 44.3027C19.6428 44.2946 20.1391 43.9332 20.2797 43.7233M19.41 44.3027C19.3594 44.3045 19.3212 44.2896 19.3018 44.2528C19.2281 44.1126 19.3439 44.0162 19.3718 43.9964M19.8421 43.7529C19.8691 43.7362 19.8961 43.7205 19.9227 43.7058C19.9524 43.6895 20.2775 43.5432 20.312 43.6073C20.3261 43.6333 20.3126 43.6742 20.2797 43.7233M19.8421 43.7529C19.7609 43.7407 19.6849 43.7111 19.6221 43.6516C19.5791 43.6108 19.5669 43.6051 19.5039 43.6073C19.1041 43.621 18.3236 43.9081 18.1684 44.307C18.112 44.452 19.002 44.1645 19.0628 44.1395C19.2699 44.0542 19.351 44.0091 19.3718 43.9964M19.8421 43.7529C19.9701 43.7722 20.111 43.7484 20.2332 43.7305C20.2487 43.7282 20.2642 43.7258 20.2797 43.7233M20.2797 43.7233C20.8634 43.6302 21.4193 43.404 21.9974 43.282C22.2426 43.2303 22.4971 43.2107 22.7316 43.1169C22.9599 43.0256 23.233 42.7282 23.3698 42.5231C23.3823 42.5043 23.341 42.5587 23.3229 42.5724C23.1478 42.706 22.9215 42.7815 22.7144 42.8434C22.2532 42.9814 21.8216 42.9814 21.3493 42.942C20.7889 42.8953 21.4462 42.7902 21.6376 42.7621C22.0857 42.6964 22.5327 42.6175 22.9829 42.5675C23.1065 42.5538 23.2749 42.5743 23.3821 42.5084C23.5514 42.4042 23.855 42.7522 24.003 42.809C24.3029 42.9239 24.5511 43.3587 24.6387 43.659C24.7863 44.1653 24.5088 44.6934 24.2617 45.13C24.2363 45.1748 23.9872 45.4913 24.0572 45.534C24.2307 45.6401 24.5118 45.5999 24.7077 45.6375C24.9719 45.6883 24.3724 45.9732 24.3627 45.9775C23.7342 46.2597 23.0567 46.358 22.3922 46.5134M19.3718 43.9964C19.3788 43.9914 19.3802 43.9913 19.3718 43.9964ZM22.3922 46.5134C22.336 46.5265 22.28 46.54 22.224 46.5541C21.8595 46.6459 21.5178 46.7772 21.1645 46.899C21.0717 46.9311 21.1377 46.8367 21.1547 46.7808C21.214 46.5855 21.2373 46.3819 21.2089 46.1796C21.1961 46.0882 21.1316 46.0061 21.1202 45.9283C21.0931 45.7437 21.2809 45.4482 21.4159 45.3369C21.6203 45.1684 21.9143 44.9052 22.1723 44.8343C22.8486 44.6483 22.5668 45.8749 22.4926 46.1697C22.4633 46.2863 22.4295 46.4006 22.3922 46.5134ZM22.3922 46.5134C22.2429 46.9642 22.0359 47.3883 21.823 47.8144M21.823 47.8144C21.7958 47.869 21.7684 47.9236 21.7411 47.9782C21.6936 48.0733 21.4208 48.4162 21.4208 48.5302C21.4208 48.7187 22.0369 48.7596 22.1748 48.7519C22.393 48.7398 22.5633 48.4262 22.7291 48.3109C23.0534 48.0853 23.5355 47.9718 23.8798 48.2197C23.9714 48.2857 24.0905 48.4978 24.1952 48.5277C24.2572 48.5454 24.3099 48.4908 24.2617 48.4341C23.9946 48.1198 23.3824 47.996 23.01 47.9216C22.6113 47.8418 22.2124 47.7993 21.823 47.8144ZM21.823 47.8144C21.2376 47.8372 20.6736 47.9902 20.1642 48.3429C20.0493 48.4225 19.9305 48.465 19.8242 48.54C19.6342 48.6741 19.6263 49.1959 19.6049 49.4098C19.5988 49.471 19.5867 49.6716 19.7133 49.5872C19.8313 49.5085 19.8869 49.2485 19.9819 49.1338C20.1631 48.915 20.3735 48.7877 20.6225 48.6632M27.6742 43.9179C27.2274 43.9179 26.7785 43.9124 26.3338 43.9647C25.8906 44.0168 25.6827 44.2183 25.5405 44.6423C25.4106 45.0293 25.434 45.4989 25.5955 45.8934M25.5955 45.8934C25.6554 46.0396 25.7342 46.1755 25.8312 46.2931C26.1983 46.7381 26.5065 45.9158 26.5457 45.6476C26.5882 45.3576 26.5184 44.9873 26.1244 45.1351C25.9314 45.2074 25.659 45.5799 25.5955 45.8934ZM25.5955 45.8934C25.5674 46.0321 25.5802 46.1592 25.6587 46.2438C25.942 46.5489 26.3429 46.4628 26.7066 46.2622M26.7066 46.2622C26.9939 46.1038 27.258 45.8741 27.4229 45.7092C27.8999 45.2321 27.237 45.5405 27.036 45.756C26.9158 45.8849 26.7989 46.0626 26.7066 46.2622ZM26.7066 46.2622C26.5009 46.7073 26.4176 47.2609 26.6936 47.6236C26.7077 47.6421 26.7223 47.6593 26.7373 47.6752M26.7373 47.6752C26.9818 47.9326 27.3427 47.8414 27.5116 47.5374C27.7143 47.1724 27.0233 47.4167 26.9005 47.5201C26.8477 47.5646 26.7916 47.617 26.7373 47.6752ZM26.7373 47.6752C26.5795 47.8445 26.4373 48.0633 26.4373 48.2815C26.4373 48.4477 26.5861 48.2564 26.6098 48.2396C26.6839 48.1871 26.8511 48.218 26.935 48.21C27.1295 48.1916 27.3341 48.1518 27.5091 48.0622C28.0281 47.7963 27.8523 47.2041 28.1177 46.7415C28.3151 46.3975 28.652 46.5034 28.9949 46.5691C29.241 46.6162 29.4782 46.5883 29.7143 46.7021C29.9527 46.817 30.1682 46.9548 30.3968 47.084C30.5007 47.1427 30.6131 47.2307 30.7344 47.2442C30.9186 47.2646 30.6916 47.4787 30.6481 47.5127C30.1246 47.9234 29.313 47.9298 28.6795 48.0203C28.3385 48.069 28.6802 48.3191 28.8273 48.4663C29.0618 48.7008 29.4301 49.1232 29.7808 49.1537C30.1225 49.1834 30.5387 49.2802 30.8576 49.097C31.32 48.8314 31.8174 48.5202 32.3655 48.486C32.3964 48.4841 32.4461 48.477 32.5058 48.4653M32.5058 48.4653C32.7376 48.4196 33.1203 48.3021 33.1416 48.1312C33.1584 47.997 32.598 47.9296 32.5084 47.9094C32.4567 47.8978 31.9966 47.7636 31.9663 47.7838C31.958 47.7894 32.1221 47.9045 32.129 47.9094C32.2009 47.9612 32.3037 48.0229 32.3556 48.0967C32.4226 48.1918 32.4934 48.3505 32.5058 48.4653ZM32.5058 48.4653L32.5059 48.4663C32.5422 48.8107 32.2728 48.9002 32.1955 49.171C32.1558 49.3098 32.1145 49.4237 32.2866 49.4962C32.5059 49.5885 32.6932 49.5481 32.8977 49.4617C33.1935 49.3368 33.3484 49.2399 33.6714 49.2399C33.8595 49.2399 34.1134 49.2804 34.2923 49.2301C34.6118 49.1402 34.9795 49.1285 35.2828 49.0182C35.6203 48.8955 36.0369 48.9915 36.3915 48.927C36.6059 48.8881 36.7926 48.9295 37.01 48.9295C37.1782 48.9295 37.402 48.7544 37.5742 48.7077C38.0201 48.5868 38.5456 48.5791 39.0082 48.5205C39.4609 48.4631 39.9219 48.486 40.3781 48.486H40.8906C40.9862 48.486 41.3774 48.4932 41.105 48.3751C40.7602 48.2257 40.4225 48.0868 40.048 48.0868M36.6773 48.3527C36.1223 48.3527 35.6307 48.2055 35.1349 47.9979C35.0299 47.954 34.8818 47.8714 34.7703 47.8649L34.7647 47.8646M34.7647 47.8646C34.6306 47.8569 34.5931 47.8621 34.7647 47.8646ZM34.7647 47.8646C34.7727 47.8647 34.7811 47.8648 34.79 47.8649C35.5561 47.8736 36.3184 47.9536 37.0863 47.9536C37.7534 47.9536 38.4178 47.9706 39.0821 48.0324C39.3726 48.0595 39.8154 48.1085 40.0825 47.9339C40.4857 47.6702 40.9685 47.6431 41.4573 47.6431C41.8238 47.6431 41.9795 47.2883 42.3098 47.2883M24.7027 42.7204C24.7027 42.5486 24.6677 42.3904 24.6584 42.2325C24.6559 42.1912 24.5928 42.1699 24.6189 42.1241C24.6617 42.0493 25.0201 42.0995 25.092 42.0995H25.9692C26.1218 42.0995 26.3055 42.0684 26.4422 42.1438C26.5428 42.1993 26.659 42.1882 26.7699 42.1882C26.9482 42.1882 27.0754 42.2746 27.2406 42.3311C27.5114 42.4237 27.7329 42.5568 28.0093 42.6218C28.3009 42.6904 28.5791 42.8819 28.8273 43.0308C29.6133 43.4396 30.4997 44.1106 31.4021 43.7158C31.8401 43.5242 32.2642 43.3906 32.7302 43.3388C32.9495 43.3145 33.2037 43.2526 33.4176 43.2526C33.5519 43.2526 33.8268 43.24 33.9621 43.1984C34.0958 43.1572 34.2241 43.0561 34.3489 43.0284C34.5235 42.9896 34.5592 42.8091 34.7259 42.8091M43.0694 18.3931C43.1923 18.5399 43.3463 18.665 43.5178 18.7573M43.5178 18.7573C43.7095 18.8604 43.9229 18.9225 44.139 18.9279C44.2516 18.9307 44.329 18.886 44.2653 18.7534C44.2146 18.6476 43.9617 18.6939 43.8716 18.6939C43.7319 18.6939 43.6274 18.7079 43.5178 18.7573ZM43.5178 18.7573C43.4774 18.7756 43.4363 18.7986 43.3925 18.8277C43.1351 18.9982 42.9049 19.2147 42.6014 19.2975C42.3663 19.3616 42.2134 19.3438 41.9682 19.2789C41.8579 19.2497 41.7559 19.2014 41.6469 19.1693C41.5841 19.1509 41.5688 19.0877 41.4984 19.0691C41.1412 18.9745 40.7902 18.8976 40.4232 18.8277C40.2415 18.793 40.0835 18.6705 39.9088 18.6122C39.7844 18.5708 39.665 18.5628 39.5411 18.5082C39.3851 18.4396 39.2313 18.3887 39.075 18.3411C38.9083 18.2904 38.7107 18.2753 38.5643 18.1777C38.3669 18.0461 37.8884 18.0327 37.8884 17.6912M44.1056 20.1648C44.1438 20.3305 44.2904 20.4246 44.3646 20.5641M44.3646 20.5641L44.3656 20.5659C44.4066 20.6438 44.3533 20.6877 44.2629 20.7117M44.3646 20.5641C44.4492 20.5647 44.5337 20.5658 44.6181 20.5677C45.3228 20.5841 45.9967 20.5769 46.698 20.499C46.7739 20.4906 46.5552 20.5659 46.4789 20.5659C46.3404 20.5659 46.2525 20.634 46.126 20.6643C45.9377 20.7095 45.7669 20.733 45.5726 20.733C45.1355 20.733 44.6992 20.7213 44.2629 20.7117M44.3646 20.5641C44.1025 20.5623 43.8402 20.5659 43.5782 20.5659C43.5086 20.5659 43.3786 20.5953 43.3294 20.5399C43.3031 20.5103 43.8257 19.921 43.8791 19.8398C44.1763 19.3871 44.4474 18.9251 44.633 18.4117C44.7511 18.0851 44.8848 17.6958 44.906 17.3458C44.9159 17.1825 44.9413 17.0232 44.9413 16.8593C44.9413 16.7292 44.685 16.5606 44.581 16.4953C44.4471 16.4112 44.305 16.3809 44.2542 16.2502C44.191 16.0877 44.1653 15.909 44.087 15.7525C44.0155 15.6095 43.8886 15.5167 43.8122 15.3848C43.7141 15.2154 43.6221 15.1267 43.6376 14.9094C43.6452 14.8032 43.7367 14.6553 43.7713 14.5492C43.8468 14.3185 43.9264 14.0877 43.9886 13.8528C44.0172 13.7449 44.0468 13.6357 44.0703 13.5297C44.0887 13.4469 44.0381 13.3529 44.1725 13.4201C44.4976 13.5827 44.8217 13.7933 45.1344 13.9809C45.4029 14.142 45.6889 14.2532 45.9626 14.4006C46.1171 14.4838 46.2741 14.5526 46.4194 14.6494C46.4811 14.6906 46.5487 14.723 46.6089 14.7664C46.6714 14.8116 46.6676 14.8904 46.7314 14.9317C46.9953 15.1024 47.3309 15.2322 47.5559 15.4442C47.9868 15.8502 48.6011 16.1042 49.1511 16.3059C49.2681 16.3488 49.349 16.4444 49.4686 16.4879C49.5858 16.5305 49.6979 16.586 49.814 16.629C50.009 16.7012 50.1846 16.7478 50.3767 16.8389C50.4874 16.8913 50.6282 16.9753 50.6237 17.097C50.6171 17.2765 50.5208 17.4662 50.4751 17.6392C50.3972 17.9347 50.268 18.2226 50.2096 18.5213C50.1363 18.8959 50.0066 19.2526 49.9143 19.6114C49.8314 19.9339 49.7529 20.2619 49.6543 20.5807C49.579 20.8244 49.6994 21.1306 49.5522 21.3514C49.4722 21.4714 49.1264 21.396 49.0174 21.3662C48.8972 21.3335 48.7638 21.3083 48.6516 21.253C48.519 21.1876 48.4179 21.076 48.2876 21.0078C47.7966 20.7509 47.342 20.3996 46.8373 20.1666C46.7227 20.1137 46.6911 19.9716 46.6646 19.8639C46.5979 19.5933 46.5279 19.3139 46.4454 19.0487C46.3466 18.7312 46.1645 18.4828 46.0109 18.1926C45.9629 18.102 45.9031 18.0205 45.9775 17.9178C46.1625 17.6623 46.4518 17.7243 46.698 17.6077C47.1091 17.4129 47.3973 17.6571 47.5151 18.0626C47.5663 18.239 47.6689 18.9614 47.983 18.9614M44.2629 20.7117C44.0952 20.7564 43.7999 20.733 43.7435 20.733H43.3869C43.2595 20.733 43.0999 20.6996 43.3591 20.6996C43.6606 20.6996 43.9618 20.7052 44.2629 20.7117ZM33.3131 15.6843C33.0605 15.6948 32.8128 15.797 32.6022 15.9333C32.5234 15.9842 32.4173 16.047 32.3274 16.0732C32.274 16.0889 31.944 16.2043 32.0136 16.0609C32.0957 15.892 32.3727 15.7525 32.5373 15.6905C32.6538 15.6466 32.7715 15.6112 32.8872 15.5639C33.0195 15.5098 33.1547 15.4132 33.238 15.2882C33.2885 15.2125 33.3375 15.1761 33.4243 15.1472" stroke="#5E4ED1" stroke-width="3" stroke-linecap="round"/>
</svg>
