<svg width="64" height="64" viewBox="0 0 64 64" fill="none" xmlns="http://www.w3.org/2000/svg">
<path d="M31.9373 7C33.0772 7 34.0267 7.35035 34.7262 8.09465C35.4256 8.83896 35.8864 10.0181 35.8864 11.6705C35.8865 11.9762 36.1968 12.2543 36.5379 12.2543H41.057V17.5087H22.8176V12.2543H27.3774C27.7185 12.2543 28.0288 11.9762 28.0288 11.6705C28.0288 10.0164 28.498 8.83802 29.1892 8.09465C29.8803 7.35128 30.7973 7 31.9373 7ZM31.9777 9.33526C31.2581 9.33526 30.6749 9.85801 30.6749 10.5029C30.6749 11.1478 31.2581 11.6705 31.9777 11.6705C32.6972 11.6705 33.2805 11.1478 33.2805 10.5029C33.2805 9.85801 32.6972 9.33526 31.9777 9.33526ZM16.8935 13.422H21.5144V16.9248H19.4992C18.4205 16.9459 17.6175 17.7609 17.606 18.6398C17.6196 29.5475 17.6333 40.4601 17.6463 51.3697C17.7802 52.4564 18.6315 52.9201 19.6006 53.1211H44.3134C45.2905 53.1141 46.2676 52.2273 46.2676 51.3335C46.2676 40.4547 46.2676 29.5694 46.2676 18.6943C46.3113 17.5931 45.2969 16.9399 44.3541 16.9246H42.3592V13.4217H46.9597C48.1056 13.476 48.798 14.283 48.8733 15.1914V54.2888C48.687 55.3099 47.9161 55.8193 46.919 56.0402H16.9949C16.0729 56.0402 15 55.0791 15 54.2523V15.1732C15.0065 14.14 15.8938 13.4821 16.8935 13.422ZM19.4992 18.0925H21.5144C21.5145 18.3982 21.8247 18.6762 22.1658 18.6763H41.7081C42.0492 18.6762 42.3595 18.3982 42.3595 18.0925H44.3544C44.6954 18.0522 44.9911 18.3764 44.9651 18.6763C44.9651 29.5728 44.9651 40.4722 44.9651 51.3698C45.0055 51.9848 44.3137 51.9535 44.3137 51.9535H19.6009C19.203 51.8771 19.1142 51.6515 18.9495 51.3697L18.9091 18.7128C18.9862 18.3522 19.2021 18.2803 19.4992 18.0925ZM22.1455 21.6319C21.8253 21.6587 21.5538 21.9274 21.5551 22.2157V29.2214C21.5552 29.5271 21.8655 29.8052 22.2065 29.8053H28.7206C29.0617 29.8052 29.372 29.5271 29.372 29.2214V22.2157C29.372 21.91 29.0617 21.6319 28.7206 21.6319C26.4318 21.6319 24.1075 21.6319 22.1455 21.6319ZM31.3263 22.763V23.9306H43.0516V22.763H31.3263ZM22.8579 22.7992H28.0692V28.6373H22.8579V22.7992ZM31.3263 26.2656V27.4332H43.0516V26.2656H31.3263ZM31.3263 29.7685V30.9361H43.0516V29.7685H31.3263ZM20.9037 33.2714V34.439H43.0516V33.2714H20.9037ZM20.9037 36.7743V37.9419H43.0516V36.7743H20.9037ZM20.9037 40.2771V41.4448H43.0516V40.2771H20.9037ZM20.9037 43.78V44.9477H43.0516V43.78H20.9037ZM33.9319 48.4506V49.6182H43.0516V48.4506H33.9319Z" fill="#5E4ED1"/>
</svg>
