<svg width="64" height="64" viewBox="0 0 64 64" fill="none" xmlns="http://www.w3.org/2000/svg">
<path d="M52.1437 36.2362C51.4759 35.4549 50.5686 34.9383 49.5858 34.7745C48.5651 34.6107 47.4436 34.7745 46.1709 35.3037L37.5393 38.6934C37.5393 38.3153 37.4637 37.9121 37.3377 37.4963C36.9722 36.3622 36.1406 35.4297 35.0191 34.9257C34.9057 34.8753 30.9616 33.2624 30.9616 33.2624L24.2831 30.4902C23.8169 30.2886 23.3129 30.1877 22.771 30.1877C20.7801 30.1877 18.8521 30.9816 17.4534 32.3803C17.1258 32.7079 16.8108 33.086 16.5588 33.464L11.594 36.5638C11.1656 36.841 10.9388 37.3451 11.0144 37.8491L12.5139 46.5563C12.5769 46.8965 12.7659 47.199 13.0557 47.388C13.3455 47.577 13.6984 47.64 14.0386 47.5644L17.5921 46.7201C21.0573 45.9011 24.951 47.4888 28.4666 48.9379L30.9994 49.9838C31.8059 50.324 32.6375 50.4878 33.4692 50.4878C34.7671 50.4878 36.0524 50.0846 37.2621 49.3033L50.9971 42.3224C51.5515 42.0452 52.2571 41.6042 52.7234 40.7347C53.4794 39.336 53.24 37.5215 52.1437 36.2362ZM50.5056 39.5376C50.4048 39.714 50.2662 39.8652 49.863 40.0669L36.0272 47.0982C34.6159 48.0054 33.2928 48.1818 31.9697 47.64L29.3613 46.5563C26.3497 45.3214 23.0104 43.9605 19.6334 43.9605C18.7639 43.9605 17.8945 44.0487 17.0124 44.263L14.7694 44.7922L13.6354 38.2397L18.1213 35.4297C18.2851 35.3289 18.4237 35.1903 18.5245 35.0265C18.7135 34.7241 18.953 34.4216 19.2302 34.1444C20.15 33.2246 21.4479 32.6953 22.7584 32.6953C22.96 32.6953 23.1365 32.7331 23.2877 32.7961L29.9787 35.5809L34.011 37.2316C34.4395 37.4333 34.7671 37.7987 34.9183 38.2649C34.9813 38.4791 35.0191 38.6556 34.9939 38.7942C34.9687 39.0084 34.9435 39.273 34.8805 39.4242C34.7923 39.6384 34.6663 39.8148 34.5151 39.9786L34.4773 40.0165C34.0236 40.4449 33.3054 40.5835 32.7005 40.3315L27.0175 37.9751C26.3749 37.7105 25.6314 38.0129 25.3668 38.6556C25.1022 39.2982 25.4046 40.0417 26.0473 40.3063L31.7303 42.6626C33.1794 43.2675 34.9057 42.9651 36.0398 41.9948L47.0782 37.6601C47.9224 37.3199 48.6029 37.1938 49.1447 37.2821C49.5354 37.3451 49.9134 37.5719 50.1906 37.8995C50.6064 38.3909 50.7198 39.084 50.4678 39.5628L50.5056 39.5376Z" fill="#5E4ED1"/>
<path d="M32.4485 25.3993C32.7005 25.6513 33.0155 25.7647 33.3432 25.7647C33.6708 25.7647 33.9858 25.6387 34.2378 25.3993L39.5806 20.0565C40.072 19.5651 40.072 18.7712 39.5806 18.2798C39.0892 17.7883 38.2953 17.7883 37.8039 18.2798L34.6032 21.4804V14.2601C34.6032 13.567 34.0488 13 33.3558 13C32.6627 13 32.0957 13.567 32.0957 14.2601V21.4804L28.9076 18.305C28.4162 17.8135 27.6223 17.8135 27.1309 18.305C26.6395 18.7964 26.6395 19.5903 27.1309 20.0817L32.4611 25.4119L32.4485 25.3993Z" fill="#5E4ED1"/>
</svg>
