<svg width="64" height="64" viewBox="0 0 64 64" fill="none" xmlns="http://www.w3.org/2000/svg">
<path d="M45.1032 11.0128H39.5118V7.58619C39.5118 6.15783 38.3534 5 36.9261 5H26.905C25.4766 5 24.3188 6.15783 24.3188 7.58619V11.0122H18.7262C16.1547 11.0122 14.0712 13.0963 14.0712 15.6673V42.8226C14.0712 45.3935 16.1547 47.4782 18.7262 47.4782H45.1032C47.6759 47.4782 49.7594 45.3935 49.7594 42.8226V15.6678C49.7594 13.0969 47.6759 11.0128 45.1032 11.0128ZM26.1956 7.78839C26.1956 7.24845 26.635 6.8096 27.1738 6.8096H36.655C37.1939 6.8096 37.6338 7.24845 37.6338 7.78839V10.3576C37.6338 10.8976 37.1939 11.3359 36.655 11.3359H27.1744C26.6356 11.3359 26.1962 10.897 26.1962 10.3576L26.1956 7.78839ZM20.2122 43.2637C18.463 43.2637 17.0442 41.8444 17.0442 40.0952C17.0442 38.346 18.4636 36.9273 20.2122 36.9273C21.9625 36.9273 23.3801 38.3466 23.3801 40.0952C23.3807 41.8444 21.963 43.2637 20.2122 43.2637ZM43.1649 43.2637C41.4151 43.2637 39.9975 41.8444 39.9975 40.0952C39.9975 38.346 41.4157 36.9273 43.1649 36.9273C44.914 36.9273 46.3334 38.3466 46.3334 40.0952C46.3334 41.8444 44.914 43.2637 43.1649 43.2637ZM46.7852 31.0557H17.0442V18.5127H46.7852V31.0557Z" fill="#5E4ED1"/>
<path d="M40.2014 48.4845H45.4235L50 58.1769H44.7768L43.2965 55.0406L41.1932 50.5861L40.2014 48.4845Z" fill="#5E4ED1"/>
<path d="M19.2232 58.1769H14L18.576 48.4845H23.7986L22.8063 50.5861L20.7035 55.0406L19.2232 58.1769Z" fill="#5E4ED1"/>
<path d="M41.7077 54.0343H22.2924L22.6166 53.3475L23.4451 51.5927H40.555L41.383 53.3475L41.7077 54.0343Z" fill="#5E4ED1"/>
</svg>
