<svg width="64" height="64" viewBox="0 0 64 64" fill="none" xmlns="http://www.w3.org/2000/svg">
<path d="M55.9918 22.2004C55.9905 22.1924 55.9897 22.1843 55.9882 22.1765C55.9852 22.1615 55.9813 22.1466 55.9772 22.1326C55.9759 22.1283 55.975 22.1238 55.9736 22.1194C55.9694 22.1053 55.9642 22.0917 55.9588 22.0781C55.957 22.0734 55.9557 22.0681 55.9537 22.064C55.9491 22.0531 55.9438 22.0428 55.9387 22.0323C55.9351 22.0252 55.9321 22.0178 55.9283 22.0107C55.9264 22.0072 55.924 22.0039 55.9221 22.0008C55.8966 21.9553 55.8651 21.9135 55.8286 21.8763C55.8276 21.8751 55.8266 21.8739 55.8256 21.8729C55.8245 21.8718 55.8239 21.871 55.823 21.8701L51.0857 17.1723C50.9733 17.0609 50.8216 16.999 50.6638 17C50.506 17.001 50.3551 17.065 50.2443 17.1777C50.1894 17.2328 50.1461 17.2982 50.1166 17.3702C50.0872 17.4422 50.0723 17.5194 50.0728 17.5973C50.0733 17.6751 50.0892 17.7521 50.1196 17.8237C50.15 17.8953 50.1942 17.9602 50.2497 18.0145L53.9556 21.6817H39.9074C37.6202 19.9883 34.8907 19.0131 32 19.0131C29.1817 19.0065 26.4382 19.9229 24.1851 21.6234C24.1615 21.6412 24.1386 21.6638 24.115 21.6817H11.7686C11.6108 21.6817 11.4594 21.7447 11.3478 21.8568C11.2362 21.9688 11.1736 22.1209 11.1736 22.2794C11.1736 22.4379 11.2362 22.5899 11.3478 22.702C11.4594 22.8141 11.6108 22.877 11.7686 22.877H22.7528C21.7931 23.8436 20.9883 24.9537 20.3669 26.1678C19.4215 28.0181 18.9315 30.0691 18.9379 32.1489C18.9379 35.6577 20.3049 38.9145 22.7336 41.4048H10.0451L13.7503 37.7228C13.8627 37.6113 13.9266 37.4596 13.9279 37.3009C13.9293 37.1422 13.8679 36.9894 13.7573 36.8761C13.6467 36.7627 13.4959 36.6981 13.3379 36.6962C13.1799 36.6943 13.0276 36.7554 12.9143 36.8661L8.17851 41.5611C8.07891 41.6588 8.01676 41.7885 8.00298 41.9276C8.00179 41.9396 8.00169 41.9515 8.00119 41.9637C8.00119 41.9714 8 41.9787 8 41.9866C8 42.0065 8.00109 42.0264 8.00298 42.0463C8.00426 42.0587 8.00645 42.0706 8.00853 42.0827C8.00972 42.0901 8.01031 42.0975 8.0118 42.1048C8.01478 42.1198 8.01884 42.1347 8.02291 42.149C8.0242 42.1533 8.02499 42.1577 8.02638 42.1619C8.03064 42.1759 8.0363 42.1896 8.04116 42.2032C8.04304 42.2079 8.04433 42.2127 8.04631 42.2173C8.05088 42.2281 8.05623 42.2385 8.06129 42.249C8.06486 42.2561 8.06793 42.2635 8.0717 42.2706C8.07369 42.2743 8.07607 42.2776 8.07815 42.2812C8.10364 42.3265 8.13499 42.3682 8.17137 42.4052C8.17236 42.4064 8.17336 42.4076 8.17445 42.4087C8.17554 42.4098 8.17613 42.4106 8.17702 42.4115L12.9143 47.1096C13.0267 47.2209 13.1784 47.2829 13.3362 47.2819C13.494 47.2808 13.6449 47.2169 13.7557 47.1041C13.8106 47.0491 13.8539 46.9837 13.8834 46.9117C13.9128 46.8396 13.9277 46.7625 13.9272 46.6846C13.9267 46.6068 13.9108 46.5298 13.8804 46.4582C13.85 46.3866 13.8058 46.3217 13.7503 46.2674L10.0444 42.6002H24.0926C26.3798 44.2936 29.1093 45.2688 32 45.2688C34.8183 45.2754 37.5618 44.359 39.8149 42.6585C39.8385 42.6407 39.8614 42.6186 39.885 42.6002H52.2314C52.3892 42.6002 52.5406 42.5372 52.6522 42.4251C52.7638 42.313 52.8264 42.161 52.8264 42.0025C52.8264 41.844 52.7638 41.692 52.6522 41.5799C52.5406 41.4678 52.3892 41.4048 52.2314 41.4048H41.2472C42.2069 40.4382 43.0117 39.3282 43.6331 38.1141C44.5785 36.2637 45.0685 34.2127 45.0621 32.133C45.0621 28.6241 43.6951 25.3673 41.2665 22.877H53.9549L50.2497 26.5591C50.1657 26.6428 50.1082 26.7496 50.0845 26.8661C50.0609 26.9826 50.0721 27.1035 50.1168 27.2136C50.1616 27.3237 50.2377 27.418 50.3358 27.4846C50.4338 27.5513 50.5493 27.5872 50.6676 27.588C50.824 27.5886 50.9743 27.527 51.0857 27.4166L55.8215 22.7212C55.9211 22.6235 55.9832 22.4937 55.997 22.3546C55.9982 22.3425 55.9983 22.3305 55.9988 22.3183C55.9988 22.3106 56 22.3032 56 22.2953C56 22.2754 55.9989 22.2555 55.997 22.2355C55.9958 22.2233 55.9937 22.2118 55.9918 22.2004ZM35.0376 28.9534H36.3958C36.5536 28.9534 36.7049 29.0163 36.8165 29.1284C36.9281 29.2405 36.9908 29.3925 36.9908 29.551C36.9908 29.7095 36.9281 29.8616 36.8165 29.9736C36.7049 30.0857 36.5536 30.1487 36.3958 30.1487H35.0383C34.9049 31.2003 34.3923 32.1662 33.5976 32.8638C32.8029 33.5613 31.7812 33.9421 30.7258 33.934H29.1954L33.8557 38.0144C33.975 38.1204 34.0479 38.2693 34.0589 38.4289C34.0698 38.5884 34.0179 38.746 33.9142 38.8674C33.8629 38.9266 33.8004 38.9751 33.7304 39.01C33.6604 39.0449 33.5842 39.0656 33.5062 39.0709C33.4282 39.0762 33.35 39.0659 33.2759 39.0407C33.2019 39.0156 33.1335 38.976 33.0747 38.9242L27.2136 33.8026C27.1223 33.7213 27.0576 33.6142 27.0279 33.4954C26.9981 33.3766 27.0048 33.2515 27.047 33.1365C27.0892 33.0216 27.165 32.9221 27.2644 32.8511C27.3638 32.7801 27.4823 32.7409 27.6042 32.7386H30.7258C31.4637 32.7408 32.179 32.4827 32.7468 32.0094C33.3147 31.5361 33.6991 30.8776 33.833 30.1487H27.6042C27.4464 30.1487 27.2951 30.0857 27.1835 29.9736C27.0719 29.8616 27.0092 29.7095 27.0092 29.551C27.0092 29.3925 27.0719 29.2405 27.1835 29.1284C27.2951 29.0163 27.4464 28.9534 27.6042 28.9534H33.8323C33.5519 27.5588 32.2661 26.3635 30.7259 26.3635H27.6042C27.4464 26.3635 27.2951 26.3005 27.1835 26.1884C27.0719 26.0763 27.0092 25.9243 27.0092 25.7658C27.0092 25.6073 27.0719 25.4552 27.1835 25.3432C27.2951 25.2311 27.4464 25.1681 27.6042 25.1681H36.3958C36.5536 25.1681 36.7049 25.2311 36.8165 25.3432C36.9281 25.4552 36.9908 25.6073 36.9908 25.7658C36.9908 25.9243 36.9281 26.0763 36.8165 26.1884C36.7049 26.3005 36.5536 26.3635 36.3958 26.3635H33.7122C34.426 27.0565 34.8919 27.967 35.0376 28.9534Z" fill="#5E4ED1"/>
</svg>
