<svg width="64" height="64" viewBox="0 0 64 64" fill="none" xmlns="http://www.w3.org/2000/svg">
<path fill-rule="evenodd" clip-rule="evenodd" d="M41.7657 16.8512L36.3427 10L17.369 22.9459H25.0192L41.7657 16.8512ZM46.8705 22.9459L44.7068 17.4086L28.468 22.9459H46.8705ZM48.0091 22.2699H51.1154C52.0038 22.2699 52.5755 22.9251 52.5755 23.7631V33.1474L53.9752 32.4856L53.9612 23.0574C53.9612 22.2163 52.7186 20.9187 51.8298 20.9187H47.4421L47.938 22.1822L48.0091 22.2699ZM52.5755 43.9577V51.674C53.3858 51.5925 54 50.9041 54 50.1166L53.9892 43.2888L52.5755 43.9577ZM11.9994 22.2699H12.2029H16.1087L18.1007 20.9187H13.4384L13.4707 20.9086C10.022 20.9055 8.96844 20.9426 9.00072 25.0031V52.4682C9.00072 53.3097 9.88629 54.026 10.7751 54.026H49.6877C50.576 54.026 51.4691 53.3332 51.4691 52.4956L51.4658 45.1619L51.2941 45.2429H47.7242C44.5683 45.2429 42.0117 42.824 42.0117 39.8375C42.0117 36.8511 44.5683 34.4326 47.7242 34.4326H51.2941L51.4616 34.3511L51.4579 25.1483C51.4579 24.3072 50.576 23.6214 49.6877 23.6214H13.4351C13.3065 23.6183 13.1881 23.6112 13.0815 23.5944H12.2029C11.8104 23.5944 11.489 23.2898 11.489 22.9189C11.489 22.6107 11.7033 22.3509 11.9994 22.2699ZM51.2941 35.7828H47.7242C45.3566 35.7828 43.44 37.597 43.44 39.8366C43.44 42.0762 45.3571 43.8904 47.7242 43.8904H51.2941L53.9785 41.7588L53.9677 33.7052L51.2941 35.7828ZM45.5821 39.8366C45.5821 38.7188 46.5425 37.8104 47.7242 37.8104C48.9055 37.8104 49.8659 38.7188 49.8659 39.8366C49.8659 40.9549 48.9055 41.8637 47.7242 41.8637C46.5421 41.8642 45.5821 40.9553 45.5821 39.8366Z" fill="#5E4ED1"/>
</svg>
